<svg id="SvgjsSvg1220" width="360" height="360" xmlns="http://www.w3.org/2000/svg" version="1.1" xmlns:xlink="http://www.w3.org/1999/xlink" xmlns:svgjs="http://svgjs.com/svgjs"><defs id="SvgjsDefs1221"></defs><g id="SvgjsG1222"><svg xmlns="http://www.w3.org/2000/svg" fill="none" viewBox="0 0 3000 3000" width="360" height="360"><path fill="#e7f7ff" d="M825.739 861.101C813.385 930.458 689.591 967.915 629.238 977.974C612.224 984.535 572.61 991.883 550.264 968.787C522.331 939.917 645.633 834.489 722.91 762.373C800.187 690.258 841.182 774.404 825.739 861.101Z" class="colorE7E8FF svgShape"></path><path fill="#e7f7ff" d="M104.83 1835.74C19.3981 2238.95 275.11 2583.18 469.492 2756.57C522.71 2804.04 593.133 2825.08 664.462 2825.08H2437.33C2580.05 2825.08 2675.19 2700.12 2601.84 2577.75C2509.2 2423.16 2906.25 1963.83 2906.25 1760.66C2906.25 1557.49 2509.2 1420.58 2341.55 1049.58C2173.91 678.577 2112.15 493.077 1512.16 395.91C912.168 298.743 1216.57 753.66 929.815 987.744C643.055 1221.83 228.357 1252.74 104.83 1835.74Z" class="colorE7E8FF svgShape"></path><path fill="#ffffff" d="M630.995 2816.13H1066.21C1187.35 2771.66 1348.88 2718.28 1308.5 2615.99 1268.12 2513.69 1066.21 2651.57 1012.37 2553.72 958.529 2455.87 1393.75 2442.53 1348.88 2317.99 1304.01 2193.46 1030.32 2353.57 1066.21 2233.49 1102.11 2113.4 1407.21 2157.88 1393.75 2033.34 1380.29 1908.8 1151.46 2113.4 1124.54 1971.07 1097.62 1828.75 1344.39 1575.23 1151.46 1530.75 958.529 1486.27 1012.37 1948.83 945.069 1971.07 877.767 1993.31 814.953 1753.14 720.73 1859.88 626.508 1966.62 788.032 2206.8 720.73 2317.99 653.429 2429.18 559.207 2015.55 451.524 2206.8 365.378 2359.8 535.277 2676.77 630.995 2816.13zM1992.02 668.311C1992.02 647.952 2008.42 631.448 2028.65 631.448H2719.13C2739.37 631.448 2755.77 647.952 2755.77 668.311V1045.09C2755.77 1065.45 2739.37 1081.96 2719.13 1081.96H2028.65C2008.42 1081.96 1992.02 1065.45 1992.02 1045.09V668.311z" class="colorfff svgShape"></path><path fill="#034668" fill-rule="evenodd" d="M1984.69 668.311C1984.69 643.88 2004.37 624.075 2028.65 624.075H2719.13C2743.41 624.075 2763.1 643.88 2763.1 668.311V1045.09C2763.1 1069.52 2743.41 1089.33 2719.13 1089.33H2028.65C2004.37 1089.33 1984.69 1069.52 1984.69 1045.09V668.311ZM2028.65 638.82C2012.47 638.82 1999.35 652.024 1999.35 668.311V1045.09C1999.35 1061.38 2012.47 1074.58 2028.65 1074.58H2719.13C2735.32 1074.58 2748.44 1061.38 2748.44 1045.09V668.311C2748.44 652.024 2735.32 638.82 2719.13 638.82H2028.65Z" clip-rule="evenodd" class="color032068 svgShape"></path><path fill="#034668" d="M2525.19 838.82L2339.65 997.154V1042.44C2339.65 1062.8 2356.05 1079.31 2376.29 1079.31H2719.13C2739.36 1079.31 2755.77 1062.8 2755.77 1042.44V979.887L2571.15 837.664C2557.47 827.121 2538.33 827.602 2525.19 838.82Z" class="color032068 svgShape"></path><path fill="#e7f7ff" d="M2428.39 771.492C2428.39 799.075 2406.17 821.435 2378.76 821.435C2351.35 821.435 2329.13 799.075 2329.13 771.492C2329.13 743.909 2351.35 721.549 2378.76 721.549C2406.17 721.549 2428.39 743.909 2428.39 771.492Z" class="colorE7E8FF svgShape"></path><path fill="#ffffff" d="M2180.1 838.654L1992.02 997.154L1992.02 1045.09C1992.02 1065.45 2008.42 1081.96 2028.65 1081.96H2539.81L2226.04 837.756C2212.42 827.157 2193.3 827.53 2180.1 838.654Z" class="colorfff svgShape"></path><path fill="#034668" fill-rule="evenodd" d="M2221.55 843.587C2210.66 835.108 2195.36 835.407 2184.8 844.306L1999.35 1000.6L1999.35 1045.09C1999.35 1061.38 2012.47 1074.58 2028.65 1074.58H2518.36L2221.55 843.587ZM2175.4 833.002C2191.24 819.653 2214.17 819.205 2230.52 831.924L2561.26 1089.33H2028.65C2004.37 1089.33 1984.69 1069.52 1984.69 1045.09L1984.69 993.712L2175.4 833.002Z" clip-rule="evenodd" class="color032068 svgShape"></path><path fill="#034668" d="M845.904 787.329C845.904 820.701 818.982 847.755 785.772 847.755C752.563 847.755 725.641 820.701 725.641 787.329C725.641 753.956 752.563 726.902 785.772 726.902C818.982 726.902 845.904 753.956 845.904 787.329Z" class="color032068 svgShape"></path><path fill="#ffffff" d="M1028.91 437.908C1028.91 583.006 920.053 700.631 785.77 700.631C651.487 700.631 542.628 583.006 542.628 437.908C542.628 292.81 651.487 175.185 785.77 175.185C920.053 175.185 1028.91 292.81 1028.91 437.908Z" class="colorfff svgShape"></path><path fill="#034668" fill-rule="evenodd" d="M785.77 182.6C656.057 182.6 550.008 296.389 550.008 437.908C550.008 579.426 656.057 693.215 785.77 693.215C915.483 693.215 1021.53 579.426 1021.53 437.908C1021.53 296.389 915.483 182.6 785.77 182.6ZM535.249 437.908C535.249 289.231 646.916 167.77 785.77 167.77C924.624 167.77 1036.29 289.231 1036.29 437.908C1036.29 586.585 924.624 708.046 785.77 708.046C646.916 708.046 535.249 586.585 535.249 437.908Z" clip-rule="evenodd" class="color032068 svgShape"></path><path fill="#034668" d="M725.936 810.975H845.611C865.988 810.975 882.508 794.375 882.508 773.897V676.986H689.04V773.897C689.04 794.375 705.559 810.975 725.936 810.975Z" class="color032068 svgShape"></path><path fill="#e7f7ff" fill-rule="evenodd" d="M713.236 395.286C717.365 392.58 722.388 391.085 728.256 391.085C739.46 391.085 747.374 395.308 751.904 402.895C755.958 409.685 756.55 418.05 756.55 424.773C756.55 436.198 751.747 446.987 743.345 455.769C753.982 459.484 768.547 462.02 788.387 462.02C808.228 462.02 822.793 459.484 833.429 455.769C825.028 446.987 820.225 436.198 820.225 424.773C820.225 418.05 820.817 409.685 824.871 402.895C829.401 395.308 837.315 391.085 848.519 391.085C854.387 391.085 859.41 392.58 863.539 395.286C867.622 397.962 870.439 401.563 872.362 405.211C876.106 412.319 876.814 420.272 876.814 424.773C876.814 434.167 873.113 446.621 861.199 456.999C867.409 459.592 874.707 461.395 883.073 462.042C894.815 462.95 905.78 459.37 914.915 454.23C924.087 449.069 930.961 442.585 934.313 438.468L945.735 447.859C941.244 453.375 932.954 461.078 922.126 467.17C911.261 473.283 897.388 478.023 881.941 476.829C868.511 475.791 856.561 471.987 846.836 466.272C833.29 472.743 814.388 476.851 788.387 476.851C762.387 476.851 743.485 472.743 729.938 466.272C720.214 471.987 708.264 475.791 694.834 476.829C679.387 478.023 665.514 473.283 654.649 467.17C643.821 461.078 635.531 453.375 631.04 447.859L642.462 438.468C645.814 442.585 652.687 449.069 661.86 454.23C670.995 459.37 681.96 462.95 693.702 462.042C702.068 461.395 709.366 459.592 715.576 456.999C703.662 446.621 699.961 434.167 699.961 424.773C699.961 420.272 700.669 412.319 704.413 405.211C706.336 401.563 709.153 397.962 713.236 395.286ZM729.155 448.807C737.536 441.69 741.792 432.793 741.792 424.773C741.792 418.359 741.077 413.588 739.249 410.526C737.896 408.261 735.352 405.916 728.256 405.916C724.973 405.916 722.806 406.72 721.298 407.708C719.743 408.727 718.476 410.216 717.457 412.15C715.319 416.209 714.72 421.391 714.72 424.773C714.72 430.571 717.091 439.493 726.904 447.162C727.611 447.715 728.361 448.264 729.155 448.807ZM847.62 448.807C848.414 448.264 849.164 447.715 849.871 447.162C859.684 439.493 862.055 430.571 862.055 424.773C862.055 421.391 861.456 416.209 859.318 412.15C858.299 410.216 857.031 408.727 855.477 407.708C853.969 406.72 851.802 405.916 848.519 405.916C841.423 405.916 838.879 408.261 837.526 410.526C835.698 413.588 834.983 418.359 834.983 424.773C834.983 432.793 839.239 441.69 847.62 448.807Z" clip-rule="evenodd" class="colorE7E8FF svgShape"></path><path fill="#ffffff" d="M1959.42 1902.52C1941.71 2337.02 2077.79 2662.83 2160.76 2791.93C2168.31 2803.69 2181.41 2810.27 2195.38 2810.27H2222.36C2246.22 2810.27 2265.56 2790.56 2265.18 2766.7C2255.88 2184.38 2110.43 1943.53 2007.74 1873.23C1985.8 1858.21 1960.51 1875.96 1959.42 1902.52Z" class="colorfff svgShape"></path><path fill="#034668" fill-rule="evenodd" d="M1980.58 1879.82C1974.01 1884.02 1968.79 1892.33 1968.36 1902.89C1950.72 2335.47 2086.27 2659.48 2168.28 2787.1C2174.06 2796.08 2184.2 2801.32 2195.38 2801.32H2222.36C2241.21 2801.32 2256.54 2785.72 2256.24 2766.84C2251.6 2476.36 2213 2271.58 2163.05 2130.95C2113.05 1990.18 2051.91 1914.31 2002.68 1880.61C1994.8 1875.21 1986.88 1875.8 1980.58 1879.82ZM1970.94 1864.74C1983.05 1857.01 1998.75 1856.23 2012.79 1865.84C2066.26 1902.44 2129.19 1982.15 2179.91 2124.96C2230.69 2267.91 2269.47 2474.72 2274.13 2766.56C2274.59 2795.4 2251.23 2819.22 2222.36 2819.22H2195.38C2178.62 2819.22 2162.56 2811.29 2153.23 2796.77C2069.31 2666.18 1932.69 2338.56 1950.48 1902.16C1951.13 1886.16 1959.11 1872.3 1970.94 1864.74Z" clip-rule="evenodd" class="color032068 svgShape"></path><path fill="#034668" d="M2578.78 2132.44C2346.4 2290.26 2237.4 2590.21 2203.31 2765.58C2198.34 2791.15 2218.45 2813.97 2244.49 2813.97H2279.17C2289.53 2813.97 2299.58 2810.27 2307.26 2803.32C2506.78 2622.87 2601.55 2342.17 2634.85 2170.26C2641.33 2136.79 2606.99 2113.29 2578.78 2132.44Z" class="color032068 svgShape"></path><path fill="#034668" fill-rule="evenodd" d="M2033.59 1967.44C2057.72 2040.96 2079.54 2113.06 2099.16 2182.43C2115.05 2238.61 2129.5 2293 2142.57 2344.9L2168.54 2281.4L2185.1 2288.17L2149.88 2374.29C2172.84 2467.55 2191.19 2552.05 2205.27 2623.51C2221.56 2706.24 2232.14 2771.56 2237.5 2812.82L2219.75 2815.13C2214.54 2775.04 2204.3 2711.61 2188.52 2631.12L2109.67 2588.71L2118.15 2572.95L2184.01 2608.37C2170.37 2540.52 2153.06 2461.85 2131.81 2375.74C2117.38 2317.23 2101.13 2255.3 2082.98 2190.99L2002.41 2148.37L2010.77 2132.55L2076.2 2167.16C2058.15 2104.23 2038.31 2039.19 2016.59 1973.02L2033.59 1967.44Z" clip-rule="evenodd" class="color032068 svgShape"></path><path fill="#ffffff" fill-rule="evenodd" d="M2511.26 2325.14C2535.48 2285.98 2558.74 2251.21 2579.88 2223.61L2565.68 2212.73C2540.47 2245.64 2512.58 2288.16 2483.85 2335.66C2456.88 2380.25 2429.1 2429.36 2402.01 2479.26L2396.67 2406.25L2378.82 2407.55L2386.21 2508.59C2354.55 2567.8 2324.26 2627.15 2297.81 2680.47C2272.87 2730.77 2251.34 2775.73 2235.31 2810.2L2251.54 2817.74C2267.17 2784.11 2288.09 2740.4 2312.34 2691.46L2391.12 2659.43L2384.38 2642.86L2324.39 2667.24C2348.51 2619.04 2375.35 2566.8 2403.21 2514.74C2434.14 2456.94 2466.31 2399.41 2497.37 2347.89L2556.8 2330.37L2551.75 2313.21L2511.26 2325.14Z" clip-rule="evenodd" class="colorfff svgShape"></path><path fill="#e7f7ff" d="M2188.56 272.498L2148.71 325.302C2146.29 328.515 2142.34 330.061 2138.46 329.31L2089.21 319.761C2078.62 317.707 2072.23 331.486 2080.4 338.753L2119.11 373.152C2121.94 375.664 2123.27 379.532 2122.62 383.327L2112.91 440.047C2111.09 450.71 2123.77 457.31 2130.96 449.434L2170.72 405.845C2173.05 403.286 2176.44 402.05 2179.81 402.524L2225.82 409.008C2236.19 410.469 2242.06 397.102 2234.18 389.986L2199.96 359.087C2197.21 356.605 2195.9 352.831 2196.49 349.107L2207.28 280.973C2209.04 269.829 2195.28 263.597 2188.56 272.498zM1144.39 223.881L1125.21 249.373C1124.04 250.924 1122.14 251.67 1120.27 251.308L1096.56 246.698C1091.46 245.706 1088.38 252.358 1092.32 255.867L1110.95 272.473C1112.31 273.685 1112.96 275.553 1112.64 277.385L1107.97 304.767C1107.09 309.915 1113.2 313.101 1116.66 309.299L1135.8 288.256C1136.92 287.02 1138.55 286.423 1140.18 286.653L1162.33 289.783C1167.32 290.488 1170.15 284.035 1166.36 280.599L1149.88 265.683C1148.56 264.485 1147.92 262.663 1148.21 260.865L1153.4 227.973C1154.25 222.593 1147.63 219.584 1144.39 223.881zM321.429 970.902L275.214 996.83C272.402 998.407 268.957 998.282 266.283 996.505L232.271 973.901C224.953 969.038 215.9 977.075 219.792 984.978L238.216 1022.39C239.562 1025.12 239.369 1028.37 237.709 1030.94L212.902 1069.29C208.238 1076.5 215.722 1085.34 223.546 1081.87L266.849 1062.65C269.392 1061.52 272.314 1061.69 274.697 1063.11L307.228 1082.45C314.556 1086.8 323.09 1078.9 319.373 1071.2L303.235 1037.77C301.939 1035.08 302.119 1031.91 303.712 1029.38L332.855 983.031C337.621 975.451 329.219 966.532 321.429 970.902z" class="colorE7E8FF svgShape"></path><path fill="#034668" d="M1961 2516.99L1996.41 2822.36H1031.61L1062.59 2516.99H1961Z" class="color032068 svgShape"></path><path fill="#ffffff" fill-rule="evenodd" d="M1399.03 1161.39C1387.56 1149.22 1354.79 1105.78 1356.69 1030.28C1347.35 1028.96 1330.03 1016.69 1335.46 978.125C1340.9 939.559 1362.64 935.769 1372.83 938.694C1399.69 854.735 1456.5 802.993 1546.07 815.612C1639.5 828.774 1689.3 874.791 1688.54 983.173C1698.33 986.041 1716.8 999.668 1712.35 1031.22C1707.91 1062.77 1687.73 1073.94 1678.2 1075.57C1666.84 1128.35 1647.55 1164.02 1625.21 1181.7L1637.92 1308.78L1567.11 1397.29L1403.36 1379.59L1398.93 1291.08L1412.03 1177.55C1408.52 1173.61 1405.6 1169.82 1402.98 1166.42C1401.6 1164.62 1400.3 1162.93 1399.03 1161.39Z" clip-rule="evenodd" class="colorfff svgShape"></path><path fill="#034668" fill-rule="evenodd" d="M1430.52 833.813C1461.38 810.362 1500.44 800.147 1547.32 806.752C1595.11 813.484 1633.28 828.819 1659.28 857.699C1684.38 885.587 1696.95 924.774 1697.48 977.243C1710.47 984.138 1725.58 1001.44 1721.21 1032.47C1716.91 1062.99 1699.13 1077.74 1685.78 1082.72C1674.71 1130.84 1656.73 1165.86 1634.59 1185.51L1647.19 1311.52L1571.03 1406.71L1394.81 1387.66L1389.96 1290.78L1402.7 1180.43C1400.13 1177.37 1397.9 1174.48 1395.95 1171.95L1395.89 1171.88C1394.57 1170.16 1393.4 1168.65 1392.29 1167.28C1379.77 1153.89 1347.71 1110.55 1347.66 1036.72C1342.32 1034.15 1336.96 1029.61 1332.86 1022.76C1326.7 1012.47 1323.69 997.539 1326.6 976.877C1329.54 956.067 1337.13 942.902 1347.08 935.629C1353.57 930.879 1360.52 929.058 1366.63 928.978C1380.5 888.983 1401.53 855.838 1430.52 833.813ZM1441.35 848.06C1414.49 868.47 1394.41 900.585 1381.35 941.421L1378.7 949.69L1370.36 947.294C1367.61 946.507 1362.55 946.481 1357.64 950.073C1352.81 953.604 1346.83 961.617 1344.32 979.373C1341.8 997.276 1344.74 1007.77 1348.22 1013.58C1351.72 1019.44 1356.09 1021.16 1357.94 1021.42L1365.83 1022.53L1365.63 1030.5C1363.81 1103.15 1395.31 1144.39 1405.54 1155.25L1405.76 1155.48L1405.97 1155.73C1407.31 1157.37 1408.67 1159.15 1410.02 1160.9L1410.07 1160.95C1412.7 1164.37 1415.44 1167.92 1418.71 1171.59L1421.38 1174.59L1407.91 1291.37L1411.92 1371.51L1563.19 1387.87L1628.66 1306.04L1615.82 1177.72L1619.66 1174.68C1639.62 1158.88 1658.28 1125.62 1669.45 1073.69L1670.73 1067.78L1676.69 1066.76C1682.45 1065.77 1699.6 1057.61 1703.49 1029.97C1707.26 1003.25 1691.98 993.505 1686.02 991.759L1679.55 989.86L1679.59 983.11C1679.96 930.218 1667.99 894.126 1645.98 869.671C1623.91 845.156 1590.47 830.902 1544.83 824.472C1502.14 818.458 1468 827.804 1441.35 848.06Z" clip-rule="evenodd" class="color032068 svgShape"></path><path fill="#034668" d="M1356.52 860.417C1343.58 901.5 1342.32 961.212 1356.76 985.594L1402.32 916.032C1411.85 924.526 1460.97 933.235 1479.96 935.91C1554.08 942.777 1613.43 908.53 1633.84 890.548C1632.91 922.596 1668.71 1013.15 1682.35 1053.81C1710.67 1022.04 1738.82 932.154 1730.14 841.543C1721.45 750.931 1664.22 738.399 1627.92 742.225C1542.01 654.141 1431.21 647.47 1368.13 714.563C1317.66 768.236 1333.52 833.34 1356.52 860.417Z" class="color032068 svgShape"></path><path fill="#ffffff" d="M856.88 1186.86C847.162 1200.02 844.267 1232.62 844.034 1247.27L799.371 1290.54L731.623 1253.21C730.36 1220.51 687.093 1175.85 699.052 1133.84C708.618 1100.24 762.705 1074.57 782.842 1078.85L780.241 987.443C779.877 974.649 789.651 963.836 802.417 962.908C815.716 961.943 827.237 972.039 828.025 985.349L835.549 1112.39C833.524 1115.13 839.627 1120.74 866.5 1105.01C900.092 1085.33 892.653 1102.21 897.839 1112.39C903.026 1122.58 869.026 1170.42 856.88 1186.86Z" class="colorfff svgShape"></path><path fill="#034668" fill-rule="evenodd" d="M801.769 953.985C820.043 952.658 835.873 966.53 836.957 984.821L844.12 1105.77C847.815 1104.63 853.583 1102.2 861.978 1097.29C870.542 1092.27 877.278 1089.1 882.672 1087.75C888.158 1086.38 894.481 1086.44 899.195 1091.22C901.195 1093.25 902.279 1095.57 902.925 1097.38C903.566 1099.17 903.961 1101.01 904.242 1102.37C904.278 1102.55 904.314 1102.72 904.349 1102.89C904.944 1105.79 905.232 1107.19 905.812 1108.33C907.867 1112.37 907.404 1116.74 906.844 1119.58C906.215 1122.76 905 1126.18 903.558 1129.54C900.657 1136.3 896.251 1144.18 891.488 1151.96C881.917 1167.57 870.202 1183.88 864.077 1192.18C860.594 1196.89 857.681 1206.42 855.722 1218C853.842 1229.11 853.091 1240.46 852.98 1247.42L852.921 1251.12L800.846 1301.57L722.877 1258.61L722.682 1253.56C722.432 1247.08 720.04 1239.4 716.095 1230.2C713.689 1224.58 711.007 1219.04 708.167 1213.17C706.257 1209.23 704.275 1205.13 702.258 1200.77C692.796 1180.3 683.477 1155.87 690.446 1131.39C696.174 1111.28 714.509 1094.92 732.465 1084.42C741.656 1079.04 751.282 1074.87 760.113 1072.32C764.631 1071.01 769.233 1070.04 773.629 1069.64L771.298 987.698C770.798 970.117 784.227 955.259 801.769 953.985ZM839.225 1106.68C839.228 1106.68 839.281 1106.68 839.376 1106.7C839.269 1106.69 839.222 1106.69 839.225 1106.68ZM819.094 985.878C818.6 977.547 811.389 971.228 803.065 971.832C795.074 972.413 788.957 979.181 789.185 987.189L792.109 1089.97L780.981 1087.6C778.093 1086.99 772.636 1087.32 765.086 1089.51C757.813 1091.61 749.544 1095.16 741.501 1099.86C724.987 1109.52 711.496 1122.81 707.657 1136.29C702.667 1153.82 709.002 1172.72 718.5 1193.26C720.213 1196.96 722.079 1200.83 723.959 1204.72C726.979 1210.97 730.034 1217.29 732.542 1223.15C735.966 1231.13 738.941 1239.45 740.091 1247.66L797.896 1279.51L835.191 1243.38C835.482 1235.76 836.331 1225.34 838.078 1215.01C840.054 1203.34 843.447 1189.99 849.682 1181.55C855.703 1173.4 867.062 1157.57 876.231 1142.6C880.838 1135.09 884.718 1128.07 887.113 1122.49C888.319 1119.67 889.004 1117.55 889.289 1116.11C889.341 1115.84 889.374 1115.63 889.395 1115.47C887.959 1112.27 887.287 1108.87 886.869 1106.75C886.814 1106.47 886.762 1106.21 886.714 1105.98C886.658 1105.7 886.606 1105.46 886.556 1105.23C883.671 1106.04 878.832 1108.15 871.021 1112.73C857.252 1120.79 847.468 1124.24 840.616 1124.57C837.393 1124.72 832.959 1124.27 829.62 1121.12C827.796 1119.41 826.459 1116.97 826.268 1114.1C826.197 1113.04 826.291 1112.02 826.508 1111.07L819.094 985.878Z" clip-rule="evenodd" class="color032068 svgShape"></path><path fill="#ffffff" d="M1919.9 2610.58C1942.92 2588.83 1953.74 2569.54 1956.27 2562.61C1984.7 2580.23 2050.61 2592.38 2071.01 2623.21C2096.51 2661.74 2043.96 2776.54 2024.05 2787.17C2004.15 2797.8 1929.08 2778.85 1909.98 2761.5C1894.69 2747.63 1908.2 2709.65 1917.5 2694.51C1907.45 2686.76 1878.9 2683.05 1880.56 2664.06C1882.64 2640.31 1891.12 2637.76 1919.9 2610.58Z" class="colorfff svgShape"></path><path fill="#034668" fill-rule="evenodd" d="M1951.64 2549.22L1947.87 2559.54C1945.93 2564.85 1936.05 2583.02 1913.75 2604.07C1908.4 2609.13 1903.78 2613.3 1899.71 2616.97C1898.38 2618.18 1897.11 2619.33 1895.88 2620.44C1891.02 2624.86 1886.81 2628.81 1883.41 2632.8C1875.99 2641.49 1872.82 2649.95 1871.65 2663.27C1870.3 2678.69 1881.86 2686.92 1890.5 2691.43C1894.18 2693.35 1898.17 2695.03 1901.58 2696.47C1902.33 2696.79 1903.05 2697.09 1903.74 2697.38C1904.33 2697.64 1904.89 2697.88 1905.42 2698.11C1901.54 2706.21 1897.79 2716.49 1895.75 2726.72C1894.32 2733.84 1893.62 2741.4 1894.52 2748.45C1895.43 2755.51 1898.06 2762.77 1903.96 2768.13C1909.95 2773.57 1919.45 2778.48 1929.71 2782.62C1940.23 2786.87 1952.47 2790.66 1964.66 2793.54C1976.84 2796.41 1989.23 2798.43 2000.03 2799.02C2010.31 2799.58 2020.94 2798.98 2028.27 2795.06C2032.51 2792.8 2036.46 2788.56 2039.89 2784.15C2043.53 2779.47 2047.35 2773.58 2051.15 2766.91C2058.75 2753.56 2066.6 2736.53 2072.98 2718.66C2079.35 2700.82 2084.38 2681.79 2086.13 2664.49C2087.84 2647.55 2086.59 2630.55 2078.47 2618.27C2072.35 2609.01 2063.16 2601.65 2053.11 2595.56C2043 2589.44 2031.44 2584.27 2020 2579.66C2013.36 2576.99 2006.39 2574.36 1999.72 2571.85C1995.12 2570.12 1990.67 2568.44 1986.58 2566.84C1976.11 2562.76 1967.33 2558.94 1960.98 2555.01L1951.64 2549.22ZM2043.84 2610.86C2052.77 2616.27 2059.47 2621.99 2063.55 2628.15C2068.17 2635.14 2069.92 2646.93 2068.33 2662.69C2066.77 2678.08 2062.2 2695.64 2056.13 2712.64C2050.07 2729.62 2042.65 2745.69 2035.6 2758.05C2032.07 2764.25 2028.72 2769.37 2025.77 2773.16C2022.61 2777.21 2020.57 2778.88 2019.84 2779.28C2017.21 2780.68 2011 2781.69 2001 2781.15C1991.54 2780.63 1980.23 2778.83 1968.77 2776.12C1957.32 2773.42 1945.97 2769.89 1936.41 2766.03C1926.61 2762.08 1919.56 2758.11 1915.99 2754.88C1914.26 2753.3 1912.84 2750.61 1912.27 2746.17C1911.7 2741.72 1912.09 2736.24 1913.29 2730.24C1915.71 2718.18 1921.01 2705.89 1925.12 2699.2L1929.33 2692.35L1922.96 2687.43C1919.41 2684.69 1914.68 2682.6 1910.77 2680.93C1909.91 2680.56 1909.08 2680.21 1908.25 2679.86C1904.88 2678.44 1901.74 2677.11 1898.78 2675.57C1891.05 2671.53 1889.16 2668.42 1889.48 2664.84C1890.39 2654.42 1892.49 2649.73 1897.03 2644.41C1899.6 2641.39 1903.03 2638.13 1907.92 2633.68C1909.08 2632.63 1910.31 2631.52 1911.61 2630.34C1915.7 2626.64 1920.52 2622.29 1926.04 2617.08C1943.4 2600.69 1954.36 2585.37 1960.21 2574.97C1966.3 2577.98 1973.1 2580.79 1980.07 2583.51C1984.66 2585.31 1989.24 2587.03 1993.85 2588.76C2000.25 2591.17 2006.7 2593.59 2013.31 2596.26C2024.44 2600.74 2034.96 2605.49 2043.84 2610.86Z" clip-rule="evenodd" class="color032068 svgShape"></path><path fill="#ffffff" fill-rule="evenodd" d="M1186.82 1303.4C1149.7 1318.3 1113.01 1337.15 1081.03 1360.41C1016.55 1410.87 982.542 1449.6 958.592 1476.87C944.322 1493.12 933.623 1505.3 922.18 1513.47C907.985 1523.61 908.859 1469.66 909.887 1406.14C911.079 1332.51 912.479 1246.04 890.865 1231.64C850.603 1204.79 667.186 1214.88 667.186 1267.42C667.186 1285.72 654.641 1354.45 639.068 1439.78C609.922 1599.46 570.168 1817.27 582.188 1871.36C609.029 1992.14 743.237 2099.51 922.18 2014.51C951.965 1994.14 979.002 1974.05 1003.64 1954.13C995.277 2224.66 1003.02 2490.8 1018.33 2521.42C1062.58 2609.93 1350.25 2609.93 1536.13 2609.93C1684.31 2609.93 1830.42 2601.67 1919.4 2578.08C1950.69 2614.47 2068.18 2653.59 2106.42 2649.76C2150.67 2645.34 2323.27 2185.06 2327.7 2078.85C2332.13 1972.63 2194.93 1503.51 1964.79 1361.89C1964.46 1361.7 1964.12 1361.51 1963.79 1361.33L1963.31 1357.46C1851.97 1277.68 1731.72 1254.02 1660.05 1255.67C1660.05 1285.17 1632.61 1344.18 1522.86 1344.18C1413.1 1344.18 1388.61 1285.17 1385.66 1255.67C1347.75 1256.72 1268.81 1268.45 1186.82 1303.4Z" clip-rule="evenodd" class="colorfff svgShape"></path><path fill="#034668" fill-rule="evenodd" d="M700.105 1244.07C682.636 1251.83 676.133 1260.16 676.133 1267.42C676.133 1277.5 672.817 1300.14 667.789 1329.95C662.696 1360.15 655.658 1398.71 647.88 1441.33L647.87 1441.38C633.29 1521.26 616.094 1615.48 604.04 1696.48C598.013 1736.99 593.292 1774.05 590.823 1804.29C588.322 1834.92 588.249 1857.39 590.922 1869.42C603.807 1927.4 642.505 1982.18 699.325 2012.19C755.722 2041.99 830.794 2047.82 917.71 2006.73C947.086 1986.62 973.738 1966.8 998.011 1947.18L1013.18 1934.91L1012.58 1954.41C1008.4 2089.52 1008.25 2223.51 1011.05 2327.5C1012.45 2379.51 1014.59 2423.92 1017.32 2457.18C1018.68 2473.81 1020.19 2487.54 1021.8 2497.98C1023.48 2508.84 1025.13 2515.01 1026.33 2517.42C1035.75 2536.25 1059.08 2551.86 1094.68 2564.13C1129.86 2576.26 1175.02 2584.47 1225.1 2589.97C1325.21 2600.97 1443.08 2600.98 1536.13 2600.98C1684.32 2600.98 1829.37 2592.69 1917.11 2569.43L1922.53 2567.99L1926.19 2572.24C1932.94 2580.1 1945.01 2588.75 1960.73 2597.31C1976.26 2605.78 1994.64 2613.78 2013.36 2620.59C2032.08 2627.4 2050.94 2632.95 2067.38 2636.55C2084.07 2640.21 2097.44 2641.67 2105.52 2640.86C2105.47 2640.87 2105.44 2640.87 2105.43 2640.86C2105.43 2640.83 2106.85 2640.38 2109.87 2637.41C2112.97 2634.36 2116.72 2629.68 2121.04 2623.29C2129.67 2610.58 2139.85 2592.24 2151.02 2569.66C2173.32 2524.58 2199.07 2463.59 2223.64 2399.28C2248.19 2335 2271.49 2267.58 2288.91 2209.66C2306.44 2151.39 2317.71 2103.74 2318.76 2078.48C2319.81 2053.34 2312.38 2005.21 2296.56 1944.17C2280.84 1883.45 2257.05 1810.84 2225.96 1737.12C2163.6 1589.23 2072.73 1438.9 1960.26 1369.6C1960.01 1369.46 1959.76 1369.32 1959.5 1369.19L1955.47 1366.98L1954.91 1362.47C1850.3 1288.63 1738.32 1264.83 1668.35 1264.54C1666.07 1280.73 1657.46 1300.74 1638.58 1317.65C1615.97 1337.92 1579.34 1353.13 1522.86 1353.13C1466.35 1353.13 1430.43 1337.91 1408.17 1317.6C1389.53 1300.59 1381.19 1280.66 1378.03 1264.96C1338.71 1267.27 1265.86 1279.43 1190.33 1311.63L1190.24 1311.66L1190.15 1311.7C1153.58 1326.39 1117.63 1344.88 1086.42 1367.56C1022.68 1417.45 989.121 1455.66 965.338 1482.74L964.708 1483.46C950.954 1499.12 939.669 1511.97 927.381 1520.75C924.154 1523.06 919.094 1525.01 913.715 1522.47C909.259 1520.36 907.027 1516.18 905.849 1513.31C903.347 1507.21 902.112 1498.12 901.4 1488.06C899.945 1467.51 900.425 1437.85 900.934 1406.43L900.941 1405.99C901.539 1369.07 902.174 1329.46 900.002 1297.28C898.914 1281.18 897.145 1267.35 894.456 1256.85C893.113 1251.6 891.608 1247.46 890.004 1244.39C888.376 1241.27 886.909 1239.75 885.902 1239.08C882.109 1236.55 875.98 1234.08 867.549 1232C859.246 1229.95 849.255 1228.4 838.147 1227.43C815.928 1225.48 789.825 1225.85 764.929 1228.65C739.928 1231.47 716.754 1236.68 700.105 1244.07ZM871.839 1214.63C881.146 1216.92 889.556 1220.01 895.828 1224.19C900.225 1227.12 903.442 1231.46 905.869 1236.11C908.322 1240.81 910.244 1246.37 911.791 1252.41C914.88 1264.47 916.74 1279.56 917.855 1296.08C920.083 1329.07 919.43 1369.39 918.837 1406.03L918.833 1406.28C918.316 1438.22 917.856 1467.12 919.25 1486.79C919.754 1493.92 920.473 1499.24 921.308 1502.86C930.252 1495.52 939.375 1485.19 951.869 1470.96C975.969 1443.52 1010.4 1404.32 1075.51 1353.37L1075.64 1353.27L1075.76 1353.18C1108.46 1329.4 1145.82 1310.23 1183.4 1295.13C1266.44 1259.75 1346.45 1247.81 1385.41 1246.73L1393.73 1246.49L1394.56 1254.78C1395.87 1267.82 1401.98 1287.73 1420.24 1304.38C1438.4 1320.95 1469.6 1335.24 1522.86 1335.24C1576.12 1335.24 1608.1 1320.94 1626.64 1304.33C1645.3 1287.61 1651.1 1267.92 1651.1 1255.67V1246.93L1659.85 1246.72C1733.31 1245.04 1855.49 1269.19 1968.52 1350.19L1971.71 1352.47L1972.14 1355.92C2088.48 1428.97 2180.29 1582.73 2242.45 1730.17C2273.88 1804.71 2297.94 1878.14 2313.89 1939.68C2329.75 2000.91 2337.8 2051.25 2336.64 2079.22C2335.48 2107.06 2323.51 2156.78 2306.05 2214.82C2288.48 2273.22 2265.03 2341.06 2240.35 2405.67C2215.68 2470.26 2189.71 2531.81 2167.06 2577.59C2155.75 2600.45 2145.15 2619.62 2135.85 2633.34C2131.22 2640.17 2126.72 2645.94 2122.42 2650.16C2118.47 2654.05 2113.31 2658.06 2107.31 2658.66C2096.28 2659.77 2080.62 2657.77 2063.55 2654.03C2046.23 2650.24 2026.6 2644.45 2007.24 2637.41C1987.9 2630.37 1968.66 2622.01 1952.16 2613.03C1938.06 2605.34 1925.41 2596.9 1916.51 2588.07C1825.89 2610.95 1681.49 2618.88 1536.13 2618.88H1535.88C1443.09 2618.88 1324.32 2618.88 1223.15 2607.76C1172.54 2602.2 1125.86 2593.81 1088.85 2581.05C1052.25 2568.43 1023.04 2550.84 1010.33 2525.42C1007.7 2520.17 1005.76 2511.33 1004.12 2500.72C1002.41 2489.68 1000.86 2475.48 999.482 2458.64C996.715 2424.93 994.568 2380.16 993.163 2327.98C990.487 2228.57 990.501 2101.95 994.125 1973.12C973.464 1989.25 951.224 2005.49 927.231 2021.9L926.652 2022.29L926.019 2022.59C834.259 2066.18 752.983 2060.78 690.966 2028.02C629.237 1995.4 587.41 1936.1 573.453 1873.3C570.116 1858.28 570.505 1833.25 572.988 1802.83C575.504 1772.03 580.289 1734.52 586.341 1693.85C598.442 1612.53 615.688 1518.04 630.251 1438.25L630.266 1438.17C638.057 1395.49 645.074 1357.04 650.144 1326.98C655.282 1296.51 658.239 1275.64 658.239 1267.42C658.239 1248.42 674.663 1235.79 692.843 1227.71C711.843 1219.28 737.039 1213.79 762.925 1210.87C788.916 1207.94 816.217 1207.54 839.712 1209.6C851.461 1210.63 862.405 1212.3 871.839 1214.63ZM922.861 1507.43C922.86 1507.44 922.842 1507.41 922.808 1507.36C922.844 1507.4 922.861 1507.43 922.861 1507.43Z" clip-rule="evenodd" class="color032068 svgShape"></path><path fill="#034668" d="M2287.87 2247.02C2217.06 2108.94 2252.47 1918.05 2279.02 1839.86 2292.3 1890.02 2320.62 2002.73 2327.7 2052.29 2334.78 2101.86 2304.1 2202.77 2287.87 2247.02zM1964.8 2131.96C1961.25 2064.69 1919.06 1903.3 1898.41 1831.01 1929.39 1910.67 2009.05 2043.44 2009.05 2131.96 2009.05 2202.77 1944.14 2444.71 1911.69 2556.82 1930.86 2443.23 1968.34 2199.23 1964.8 2131.96zM1512.97 1216.75C1456.32 1216.75 1421.5 1188.72 1411.18 1176.92L1406.75 1221.18C1505.89 1277.82 1595.58 1244.78 1628.04 1221.18L1623.61 1176.92C1610.33 1188.72 1569.62 1216.75 1512.97 1216.75zM917.706 1665.57L908.759 1473.21 917.706 1517.94 998.231 1441.89C958.863 1495.58 928.144 1613.38 917.706 1665.57zM1112.34 1812.25L1004.98 1941.98 1000.5 2192.5C1018.4 2006.4 1089.97 1883.82 1112.34 1812.25z" class="color032068 svgShape"></path></svg></g></svg>