<svg id="SvgjsSvg1080" width="360" height="360" xmlns="http://www.w3.org/2000/svg" version="1.1" xmlns:xlink="http://www.w3.org/1999/xlink" xmlns:svgjs="http://svgjs.com/svgjs"><defs id="SvgjsDefs1081"></defs><g id="SvgjsG1082"><svg xmlns="http://www.w3.org/2000/svg" data-name="Layer 1" viewBox="0 0 517 516" width="360" height="360"><path d="M512.41 426.12c-.33-14.52-.25-29.05-.14-43.57.05-6.94.16-13.87.05-20.81-.07-3.86-.13-7.73-.37-11.58-.26-4.14-.69-8.27-1.12-12.39a93.14 93.14 0 0 0-1.48-9.54 101.89 101.89 0 0 0-8.22-23.61c-1.44-2.95-3.16-5.76-4.72-8.65-4.11-7.64-9.32-14.56-14.08-21.78-.63-.95-1.34-1.85-2-2.77-1.52-2.08-3.08-4.13-4.56-6.24a93.31 93.31 0 0 0-6.11-8.27 31.06 31.06 0 0 1-5.78-10.19c-.21-.6-.44-1.2-.66-1.81-1-2.77-1.92-5.53-2.87-8.3a3.07 3.07 0 0 1-.23-1.25 15.6 15.6 0 0 1 .6-3.36 45.38 45.38 0 0 1 2.4-5.49l4.08-7.79a80 80 0 0 0 5.67-13.39 47.33 47.33 0 0 0 2.39-17.11 12.49 12.49 0 0 1 0-1.5c0-.25-.17-.58.34-.8a7.79 7.79 0 0 1 1.27 1.24 6.75 6.75 0 0 0 2.28 1.57.9.9 0 0 0 1-.22.83.83 0 0 0 .21-1c-.29-.65-.66-1.27-1-1.89a25.55 25.55 0 0 1-2.7-6.95 2.89 2.89 0 0 1 1.33.21 10.2 10.2 0 0 0 2.12.29 1.22 1.22 0 0 0 1.19-1.78 9.2 9.2 0 0 0-.67-1.33c-1.14-2.07-2.34-4.1-3.4-6.21a93.59 93.59 0 0 1-5.94-12.85 25.2 25.2 0 0 0-3.15-6.07 19.8 19.8 0 0 0-5.71-5.75c-2.77-1.77-5.6-3.46-8.51-5a32.7 32.7 0 0 0-8-2.91c-3.5-.77-7-1.22-10.59-1.64a68 68 0 0 1-12-2.31 14.62 14.62 0 0 0-2.49-.62 38.67 38.67 0 0 0-10.69.12c-4.69.74-9.09 2.43-13.55 4a40.16 40.16 0 0 0-9.19 4.55 148.51 148.51 0 0 0-14.17 10.4 39.62 39.62 0 0 0-7.93 9A40.19 40.19 0 0 0 360 173.3a25.45 25.45 0 0 0-.74 4.43 4 4 0 0 0 0 .85.58.58 0 0 0 .57.53.94.94 0 0 0 .59-.18 1.32 1.32 0 0 0 .31-.54 31.38 31.38 0 0 1 4.56-8c.27-.1.59-.5.67.18.13 1.09-.18 2.2.19 3.28a77.39 77.39 0 0 0 .45 9c.51 3.25.83 6.53 1.5 9.75a84.22 84.22 0 0 1 1.94 20 35.78 35.78 0 0 1-2.1 11.11 20.77 20.77 0 0 0-1.15 6.09 7.12 7.12 0 0 0 2.7 6.25 13.85 13.85 0 0 0 6.29 3.07c.84.14 1.69.29 2.52.51 1.25.34 2.17.92 2.24 2.45a3.59 3.59 0 0 0 2.15 3c.76.4 1.49.84 2.23 1.27a5.75 5.75 0 0 1 2.25 2.53 14.26 14.26 0 0 1 .8 2 11.54 11.54 0 0 0 2.4 4.26 17.32 17.32 0 0 1 2.83 4.53 23.5 23.5 0 0 0 1.74 3.19c1.87 3 4.72 3.85 8 3.54a20.52 20.52 0 0 0 7.43-2c4-2 8.28-3.52 12.1-5.95a7.58 7.58 0 0 1 2-.84c1.18-.36 1.61-.08 1.76 1.1.12.92.12 1.85.18 2.78.24 3.95.77 7.83 2.6 11.41a3.81 3.81 0 0 1 .24 2.71c-.24 1-.51 2.09-.85 3.1-3.69 10.94-5.88 22.22-7.64 33.6-.53 3.46-.94 7-1.35 10.42q-1.31 10.86-2.56 21.73-1.42 12.48-2.24 25a1.91 1.91 0 0 1-.06.64.36.36 0 0 1-.52.2 2.8 2.8 0 0 1-.84-.64c-1.3-1.61-2.62-3.21-3.83-4.89a7.71 7.71 0 0 0-2.58-2.5 2.67 2.67 0 0 1-1.25-1.14c-1.14-2.4-3.05-4.32-4.07-6.8-.51-1.24-1.31-1.47-2.62-1.2-.53.1-.92.74-1.56.39a47.83 47.83 0 0 0-1.21-5.43 19.16 19.16 0 0 0-2.14-5.12 30.72 30.72 0 0 1-2.39-4.49c1.75-1.79 1.89-2.05 2.35-4.5.08-.42.18-.84.22-1.26.39-4.92 1-9.83.9-14.78v-9a45.73 45.73 0 0 0-.88-8.09 9.39 9.39 0 0 0-.46-1.65 3.11 3.11 0 0 0-2.63-2.22c-2.54-.35-5.07-.86-7.62-1.21-6.65-.92-13.32-1.78-20-2.69a12.67 12.67 0 0 1-3.73-.92 1.16 1.16 0 0 1-.65-1.6 13.68 13.68 0 0 1 1-1.87 17.49 17.49 0 0 0 2.69-7.61 23.89 23.89 0 0 0 .11-5.14c-.61-5.13-2.57-9.5-7.12-12.36a25.74 25.74 0 0 0-2.63-1.44 13.14 13.14 0 0 0-5.39-1.21 15.91 15.91 0 0 0-7.58 2 23.17 23.17 0 0 0-9 8.7 13.67 13.67 0 0 0-2 9.22 45.62 45.62 0 0 0 1 6.14 7.61 7.61 0 0 1 .17 1.27c.08 1.15-.21 1.53-1.37 1.77-.34.07-.71.08-1.06.12a44.81 44.81 0 0 1-5.79.18c-2.86-.06-5.72-.13-8.58-.1-4.15 0-8.3.2-12.45.25h-10.73a8 8 0 0 1-3.35-.38 7.32 7.32 0 0 0-2.53-.38c-4.08-.17-8.15-.34-12.23-.42-2.86-.05-5.72 0-8.58.12-3.42.17-6.83.58-10.28.43a3.86 3.86 0 0 0-4 4.81c.23 1.26.59 2.5.86 3.76a30.94 30.94 0 0 1 .64 11.5c-.8 5.12-3.91 10.4-11 11.94a27.53 27.53 0 0 1-7.89.47 16.72 16.72 0 0 1-14.11-8.77 13.29 13.29 0 0 1-1.48-9.33 23.54 23.54 0 0 1 1.28-4.08 40.55 40.55 0 0 0 1.58-4.66 8.1 8.1 0 0 0-2.52-8.18 8.22 8.22 0 0 0-5.85-2.25c-2.36 0-4.73-.14-7.08 0-5.22.27-10.43.63-15.63 1-3 .21-6 .45-9 .75-2.65.26-2.7.34-2.61 3 .16 4.79.35 9.57.52 14.36a113.4 113.4 0 0 1 0 12.23 12.74 12.74 0 0 1-.67 3.57 4.41 4.41 0 0 1-1.66 2.19 2.09 2.09 0 0 1-2 .25 30 30 0 0 0-10.28-1.86 19.77 19.77 0 0 0-9.29 2.19 13.55 13.55 0 0 0-6.37 6.44 16.54 16.54 0 0 0-1.37 9.43 17.84 17.84 0 0 0 5.41 10.47l.83.82a18.57 18.57 0 0 1-2.66 2.53c-2.61 2-5.19 4.05-7.85 6a80.82 80.82 0 0 1-8.82 5.69c-.37.21-.73.48-1.24.15-.18-5.46-.87-10.93-1.32-16.41-.16-1.86-.36-3.7-.54-5.56a1.19 1.19 0 0 1 .37-1.13 5.34 5.34 0 0 0 1.46-2.81c.27-1.11.58-2.22.77-3.34 1.15-7 1.75-14 2.21-21.12.32-4.85.33-9.72.36-14.58a219.71 219.71 0 0 1 .94-22.51 60.06 60.06 0 0 1 2.12-10.71c.33-1.11.4-1.18 1.47-1.06a25.23 25.23 0 0 0 5.14-.13 8.15 8.15 0 0 0 5.44-2.68 28.38 28.38 0 0 0 3-3.95c1.32-2 2.6-4.11 4-6.09a19.56 19.56 0 0 0 2.43-4.75c.14-.41.27-.82.44-1.21 2-4.48 5-7.82 9.92-9 .49-.12 1-.25 1.44-.41a6.93 6.93 0 0 0 3.68-2.82 6.55 6.55 0 0 0 .69-6.14c-.72-1.86-1.44-3.73-2.11-5.61a13.19 13.19 0 0 1-.55-6.14 26.26 26.26 0 0 1 .6-3.16c1.24-4.84 2.47-9.69 3.47-14.59a10.29 10.29 0 0 1 .59-2.71c.45-.86 1.62-.74 2.45-1.11a9 9 0 0 0 4.64-4 12 12 0 0 0 1.4-5.14 36.31 36.31 0 0 0-.89-10 34.71 34.71 0 0 0-4.7-10.71 72.42 72.42 0 0 0-38.49-29.26 65 65 0 0 0-18.51-3.08 53.73 53.73 0 0 0-19.19 3c-9 3.17-16.57 8.35-22.09 16.25-2.09 3-4.27 5.9-6.52 8.77q-6.78 8.6-13.09 17.53c-4.58 6.48-8.77 13.23-12.9 20s-8.14 14-12.23 20.91a73.75 73.75 0 0 0-6.07 14.61c-1.57 4.82-3.06 9.67-4.71 14.47-1.19 3.44-2.6 6.8-3.88 10.21-2.3 6.08-4 12.35-6 18.54a109.23 109.23 0 0 1-4.4 12.31c-1.8 4-3.35 8-4.81 12.14a47.52 47.52 0 0 0-2.91 15.73 64.82 64.82 0 0 0 .46 8.35A59.6 59.6 0 0 0 14 350.94c.28.42.56.84.87 1.22a.72.72 0 0 0 .77.26.83.83 0 0 0 .65-.75v-1.49a34.31 34.31 0 0 1 .46-6 16.57 16.57 0 0 1 1.95-5.89 5.87 5.87 0 0 1 .61 2.12 26.64 26.64 0 0 0 7.09 13.47 16 16 0 0 0 1.44 1.29 1 1 0 0 0 1.19.16.89.89 0 0 0 .37-1.11 12.3 12.3 0 0 1-.43-3c-.29-4.07.81-7.93 1.78-11.81a2.19 2.19 0 0 1 .32-.55c.31.26.3.64.39 1a34 34 0 0 0 3.57 8 26 26 0 0 0 6.79 7.64 1.72 1.72 0 0 1 .72 1.44c.15 2.22.34 4.43.52 6.64.4 4.91.79 9.83 1.2 14.75.17 2.07.32 4.14.53 6.2.36 3.41.8 6.82 1.14 10.23.38 3.92.65 7.84 1 11.76.83 8.48 1.26 17 1.49 25.49.17 6.07.3 12.16.62 18.23q.32 5.89.12 11.79c-.09 2.93-.34 5.86-.22 8.8a5.15 5.15 0 0 1-.34 2.32 3.27 3.27 0 0 0-.22 1 .54.54 0 0 0 .46.62.7.7 0 0 0 .73-.31 3.49 3.49 0 0 0 .25-.59 10.25 10.25 0 0 0 .67-4c0-1.36.07-2.72.09-4.07.08-4.58.34-9.16.09-13.74-.15-2.78-.31-5.57-.4-8.36-.14-4.07-.23-8.15-.34-12.22-.1-3.36-.1-6.73-.33-10.09-.49-7.34-1.09-14.69-1.67-22-.12-1.64-.28-3.28-.47-4.91-.61-5.33-1.29-10.65-1.62-16-.15-2.43-.35-4.85-.55-7.27-.36-4.42-.68-8.85-1.13-13.26a69.82 69.82 0 0 1-.06-13.25c.61-6.91 1-13.83 2.14-20.69a94.14 94.14 0 0 1 6.25-22.44A75 75 0 0 1 68 278.14c6.08-6.14 13.07-11.09 20-16.11a1.06 1.06 0 0 1 .19-.06c.37.14.52.47.72.76a31.53 31.53 0 0 0 9.37 9 24.72 24.72 0 0 0 7.38 3.38c1.52.39 3.06.69 4.61 1a1.55 1.55 0 0 1 1.25 1c2.37 5 4.46 10.21 6.32 15.46.83 2.35 1.44 4.78 2.13 7.18 1.41 4.88 2.61 9.81 3.56 14.8 1.53 8.08 2.35 16.27 3.47 24.41.63 4.61 1 9.24 1.43 13.87.59 6.92.92 13.84 1.08 20.78 0 1.86 0 3.72-.08 5.58a2.7 2.7 0 0 0 .14 1.26.68.68 0 0 0 1.08.14 1.6 1.6 0 0 0 .34-.75c.1-1.07.2-2.14.2-3.21 0-2.86-.06-5.72-.19-8.58a1.86 1.86 0 0 1 1.12-2 98.53 98.53 0 0 0 20.07-14.58 1 1 0 0 1 1.3-.28 9.65 9.65 0 0 0 3.91 1c.92.07 1.84.2 2.81.3a3.81 3.81 0 0 1-.93 1.7c-3.13 4.45-6.49 8.72-10 12.85-1.72 2-3.45 4-5.35 5.86a175.47 175.47 0 0 1-15.17 13.27c-6.75 5.18-13.31 10.62-20.16 15.67-2.47 1.82-5 3.53-7.35 5.57-.07.06-.26 0-.54 0-.21-2.4-.63-4.78-.7-7.21v-2.79a1.32 1.32 0 0 1 .84-1.33c.94-.52 1.81-1.15 2.72-1.72a3.43 3.43 0 0 0 1.59-2.66 22.82 22.82 0 0 0 .13-2.35c0-1.93-.06-3.86 0-5.79.17-3.43 0-6.86 0-10.3-.19-8.16-1-16.26-2-24.36-.49-4.12-1.09-8.22-1.52-12.35-.52-5.05-1.24-10.08-2-15.1-.82-5.81-2.1-11.53-3.39-17.25a37.23 37.23 0 0 0-3.76-10.2c-.28-.5-.56-1-.88-1.47a.84.84 0 0 0-1.16-.11c-.35.28-.26.61 0 .94a32.24 32.24 0 0 1 4 9.43A196.74 196.74 0 0 1 98.65 324c.46 3.32.92 6.65 1.32 10l2 16.62c.44 4 .84 8 1.16 12 .25 3 .24 6 .52 9 .6 6.22-.09 12.44.12 18.66a3.62 3.62 0 0 1-1.82 3.42 29.54 29.54 0 0 1-6.34 3.09c-4.16 1.3-8.42 2.22-12.63 3.33q-1.75.47-3.54.84a59.51 59.51 0 0 1-8.53.83c-1.5.11-3 0-4.51 0a3.84 3.84 0 0 1-3.9-2.76q-.36-1-.66-2a34.85 34.85 0 0 1-1.23-8c-.4-7.22-.9-14.43-1-21.65 0-.86-.06-1.72-.14-2.57-.38-3.92-.74-7.84-1.16-11.75-.38-3.48-.82-6.95-1.24-10.43a3.5 3.5 0 0 0-.28-1 .72.72 0 0 0-.52-.29.58.58 0 0 0-.62.47 1.72 1.72 0 0 0 0 .64q.63 6.07 1.27 12.16c.44 4.26 1 8.52 1.15 12.81.22 6.8.56 13.58.88 20.37.07 1.64.23 3.29.44 4.92a32.71 32.71 0 0 0 1.25 5.86c.81 2.52 2.05 4.59 5.07 4.8a.83.83 0 0 1 .75.67c.34 1.54.77 3.06 1 4.61a91.6 91.6 0 0 0 3.5 15.89 56.86 56.86 0 0 0 5 11.84 26.68 26.68 0 0 0 16.36 12.64 15.66 15.66 0 0 0 11.3-.71 18.08 18.08 0 0 0 4.72-3.66c4.11-4 8-8.21 11.87-12.4q3.21-3.47 6.46-6.89c.48-.5 1-1 1.49-1.41.42.27.33.58.36.84.38 3.77.74 7.54 1.15 11.31.27 2.48.67 5 .92 7.44.53 5.34 1 10.68 1.18 16.05l.48 14.16a9.16 9.16 0 0 0 .14 1.48.6.6 0 0 0 .64.46.62.62 0 0 0 .6-.52 6.8 6.8 0 0 0 .1-1.27c0-1.65-.06-3.29-.11-4.94-.18-5.07-.22-10.16-.58-15.22-.39-5.56-.82-11.13-1.6-16.66-.46-3.25-.56-6.55-1.17-9.79-.24-1.33-.25-2.71-.39-4.06a1.66 1.66 0 0 1 .52-1.53c3.09-3 5.81-6.32 8.66-9.53q9.13-10.25 18.48-20.32c5.59-6 11.11-12.13 16.94-17.93.22-.23.39-.64.83-.41v1.71c-.34 4.93-.61 9.86-.54 14.8a21.83 21.83 0 0 0 .12 2.56 1.75 1.75 0 0 0 1.7 1.64c2 .2 4 .42 6 .49 5.43.18 10.87 0 16.31-.11 3.43-.08 6.86-.21 10.3-.1a34 34 0 0 0 5.13-.31c2.45-.31 3.63-1.74 3.64-4.23a10.32 10.32 0 0 0-.74-3.76c-.62-1.68-1.26-3.35-1.82-5a12.49 12.49 0 0 1 4.23-14.21c3-2.35 6.44-3.7 10.39-3.09a26.34 26.34 0 0 1 6.55 1.92 15.12 15.12 0 0 1 8.53 9.9 8.08 8.08 0 0 1 .3 3 11.19 11.19 0 0 1-3.1 7.12c-.64.68-1.31 1.32-2 2a6.08 6.08 0 0 0 .24 8.66 11.61 11.61 0 0 0 2.42 1.76 19 19 0 0 0 6.3 2 79.52 79.52 0 0 0 11.11.91c5.87.08 11.72.46 17.57.8 2.5.15 5 .32 7.5.27a81 81 0 0 1 9.85.51c2.91.31 5.82.66 8.73 1a99.22 99.22 0 0 1 11.58 2.18 7.59 7.59 0 0 1 3.25 1.58 2.94 2.94 0 0 1 .78 3.5 6.69 6.69 0 0 1-1.68 2.2c-.72.69-1.44 1.38-2.15 2.09a6.73 6.73 0 0 0-1.49 2.33 12.76 12.76 0 0 0 .85 11.73c.29.5.62 1 .91 1.45a16.24 16.24 0 0 0 11.56 7.75 21.89 21.89 0 0 0 14.83-2.56c5.3-3 7.83-7.27 7-13.28a10.57 10.57 0 0 0-.32-1.46c-.79-2.75-1.6-5.49-2.4-8.23a15.45 15.45 0 0 1-.49-1.86 2 2 0 0 1 1-2.18 9.87 9.87 0 0 1 1.56-.69 12.92 12.92 0 0 1 4.66-.56c2.36.06 4.72.12 7.08.27a232.16 232.16 0 0 0 26.38-.17 18.67 18.67 0 0 0 3-.44 6 6 0 0 0 1.36-.59 1.19 1.19 0 0 0 .7-1c.12-1.14.24-2.28.38-3.41 0-.31-.12-.74.46-.85.83.74 1.72 1.46 2.52 2.26 1 1 1.87 2 2.77 3 1.57 1.77 3.12 3.55 4.69 5.31q4.75 5.39 9.53 10.76a2.56 2.56 0 0 1 .7 1.51 70.75 70.75 0 0 1 .43 7.28 95.57 95.57 0 0 0 .29 10.29c.48 4.77.81 9.55 1.19 14.33.35 4.34.78 8.69 1 13.05a129.56 129.56 0 0 0 1.82 16.19 2.79 2.79 0 0 0 .23.81c.17.32.44.59.86.45a.66.66 0 0 0 .5-.63 7.8 7.8 0 0 0-.12-1.27c-.57-3.46-1.16-6.91-1.43-10.41-.35-4.7-.61-9.42-.93-14.13-.12-1.71-.28-3.42-.43-5.13-.22-2.63-.46-5.27-.67-7.91-.29-3.56-.7-7.12-.71-10.7a77.29 77.29 0 0 0-.31-9.86c0-.29-.23-.71.39-.94.45.49.92 1 1.41 1.53 3.56 3.72 7.1 7.46 10.69 11.15 2.59 2.67 5.32 5.19 8.09 7.68a107.39 107.39 0 0 0 20.28 13.94 13.17 13.17 0 0 0 4.22 1.47c2.11.36 4.22.76 6.33 1.14a26.24 26.24 0 0 0 10 0 25.85 25.85 0 0 0 17.44-12.46 19.86 19.86 0 0 0 3-9.28c.14-2.57.07-5.15.06-7.73 0-6-.06-12 .28-18q.34-6.31.48-12.65c.14-6.44.17-12.88.27-19.32.06-3.65.21-7.29.26-10.94.12-9.94-.25-19.89.16-29.83a1.94 1.94 0 0 0-.14-.83.65.65 0 0 0-.48-.31.75.75 0 0 0-.52.26c-.36.42-.25 1-.29 1.44-.35 5.22-.41 10.44-.33 15.66.07 4.65.1 9.3 0 13.95-.12 8.59-.32 17.17-.49 25.75-.08 3.72-.09 7.44-.26 11.16-.35 7.36-.74 14.72-.56 22.09.08 3.22-.09 6.43-.05 9.65a8.44 8.44 0 0 1-.37 2.54 24.64 24.64 0 0 1-13.83 15.77 23.32 23.32 0 0 1-12.36 1.88 81 81 0 0 1-8.87-1.52 13.22 13.22 0 0 1-3.4-1.25A117.53 117.53 0 0 1 444 451.1a113.17 113.17 0 0 1-15.21-13.22c-3.06-3.11-6.07-6.27-9.09-9.41-6.59-6.86-12.79-14.09-19.11-21.19a78.27 78.27 0 0 0-5.42-5.8c-3.7-3.38-7.41-6.74-11.27-9.93-.88-.73-1.73-1.5-2.53-2.31s-.83-1.32-.2-2.26c.16-.24.42-.43.49-.69.29-1 .67-1.81 2-1.72.41 0 .88-.42 1.29-.7a18.81 18.81 0 0 0 3.88-3.68 87.71 87.71 0 0 0 9.49-14.26c.49-.92.51-.95 1.46-.61a69.52 69.52 0 0 1 9.35 4.23 97.13 97.13 0 0 1 11.67 7.21c3.62 2.67 7.38 5.17 11 7.81q8 5.81 15.88 11.72a69.81 69.81 0 0 1 11.14 10 72.85 72.85 0 0 1 7.06 9.43 6 6 0 0 0 .76 1 .64.64 0 0 0 .78.14.65.65 0 0 0 .37-.88 12 12 0 0 0-.83-1.49 67 67 0 0 0-8.72-11.13 6.29 6.29 0 0 1-1.51-2.53 23.54 23.54 0 0 1-1-11.2 34.35 34.35 0 0 0-.28-12.38 62.29 62.29 0 0 0-2.36-8 12.1 12.1 0 0 1-.26-8c.39-1.22.67-2.49 1.11-3.69a7.39 7.39 0 0 0-1-7.12c-.49-.71-1-1.43-1.41-2.15a15.14 15.14 0 0 1-2.2-5.77 25.51 25.51 0 0 1-.33-4.27 98.75 98.75 0 0 1 1.5-15.25 172.6 172.6 0 0 1 5.54-22 5.78 5.78 0 0 0 .24-.81.67.67 0 0 0-.48-.83.56.56 0 0 0-.7.34 19.56 19.56 0 0 0-.87 2.19c-1 3.42-2.1 6.83-3 10.28a115.13 115.13 0 0 0-3.4 19.84 48.69 48.69 0 0 0-.2 9.43 18.33 18.33 0 0 0 3 8.38c.52.77 1 1.55 1.5 2.35a5.2 5.2 0 0 1 .48 4.53c-.41 1.22-.7 2.48-1.12 3.69a14.49 14.49 0 0 0 .25 9.87c.68 1.88 1.29 3.8 1.78 5.73a30.39 30.39 0 0 1 .83 12.12c-.23 1.55-.3 3.13-.45 4.7a35.05 35.05 0 0 0 .35 5.12c.2.59.37 1.16-.62 1-2.44-1.86-4.87-3.74-7.32-5.58-9.09-6.84-18.33-13.45-27.64-20-.87-.61-2.17-.94-2.5-1.9a10.64 10.64 0 0 1-.06-3.39c0-.29 0-.58.06-.86.78-8.19 1.36-16.39 2.34-24.56.66-5.46 1.22-10.94 1.92-16.4s1.56-11.18 2.38-16.77 1.76-10.86 3.05-16.22c1.25-5.21 2.83-10.33 4.3-15.48.2-.7.5-1.14 1.29-1.16a24.12 24.12 0 0 0 4.6-1 64.78 64.78 0 0 0 15.8-5.92 53.55 53.55 0 0 0 15.27-12c.21-.24.34-.65 1-.53.9 1.22 1.9 2.52 2.85 3.85 1.87 2.61 3.62 5.32 5.6 7.85 4.5 5.76 8.31 12 12.52 17.94a131 131 0 0 1 7.38 12.31 107 107 0 0 1 7.39 15.69 94.08 94.08 0 0 1 4.79 18 212.08 212.08 0 0 1 2.17 27.57c.14 9.23 0 18.46-.09 27.69-.11 16.31-.06 32.62.39 48.92.29 10.73.12 21.47.12 32.2 0 1.35-.13 2.71-.18 4.07-.15 3.79-.3 7.58-.43 11.36 0 .81.37 1.34.86 1.21s.66-.65.68-1.17c.11-2.57.26-5.14.34-7.71.49-16.94.29-33.87-.1-50.82ZM154.23 156.39a4.87 4.87 0 0 1 1.26.14 22 22 0 0 1 13.51 9.81 21.59 21.59 0 0 1 3.36 9.37c0 .35.07.71.12 1.2-.13.71-.25 1.56-.46 2.39-.09.38-.23.84-.78.87-.33 0-.52-.39-.33-1 .83-2.85.06-5.49-.95-8.12-.11-.26-.26-.5-.36-.77-1.91-5.16-5.64-8.65-10.37-11.18a10.83 10.83 0 0 0-5.05-1.56.48.48 0 0 1-.49-.56.55.55 0 0 1 .54-.59Zm-129.11 129a126.65 126.65 0 0 0-6.47 12.79 60.34 60.34 0 0 0-4.53 21.9 29.22 29.22 0 0 0 .35 6 5.32 5.32 0 0 1 0 1.26.24.24 0 0 1-.31.23c-.13 0-.3 0-.38-.12a2 2 0 0 1-.42-1.18 33.23 33.23 0 0 1-.46-5.27 63.91 63.91 0 0 1 6.6-27.54c1.66-3.32 3.5-6.54 5.26-9.81q2.39-4.44 4.41-9 3-6.78 5.48-13.72a29.79 29.79 0 0 0 1.54-5.35 7.1 7.1 0 0 1 .35-1.23c0-.09.22-.15.35-.17a.36.36 0 0 1 .44.34 6.76 6.76 0 0 1-.11 1.49c-.3 1.25-.57 2.51-1 3.72a159.08 159.08 0 0 1-11.1 25.65Zm30.39-14.32a5.48 5.48 0 0 1-.46.72c-1.38 1.73-2.74 3.48-4.16 5.18a56 56 0 0 0-12.56 25.93 103.42 103.42 0 0 0-1.52 16c0 1.07-.08 2.14-.14 3.21a2.5 2.5 0 0 1-.22.81.43.43 0 0 1-.35.18.41.41 0 0 1-.33-.19 2.57 2.57 0 0 1-.18-.82v-3.47c.37-5.45.52-11 1.64-16.38a54.67 54.67 0 0 1 7.63-19 73.49 73.49 0 0 1 6.58-8.72c1-1.06 1.8-2.22 2.7-3.34.18-.22.35-.45.55-.65a.54.54 0 0 1 .76-.07c.23.2.14.42.06.6ZM64 220.23c-3.59 4.07-7.24 8.1-10.56 12.42l-.52.67a.6.6 0 0 1-.76.21c-.31-.16-.27-.48-.11-.73.34-.54.69-1.09 1.08-1.59a78.69 78.69 0 0 1 2.71-3.33c2.94-3.41 5.91-6.8 8.86-10.2a66.46 66.46 0 0 0 9.51-14.46c2.88-5.91 5.44-11.95 7.75-18.1a95.37 95.37 0 0 1 6.48-14.22A59.31 59.31 0 0 1 100 156.06a43.17 43.17 0 0 1 21.77-10.78c1.76-.3 3.56-.36 5.15-.51a38.92 38.92 0 0 1 6.57.75 4.09 4.09 0 0 1 2.1 1 .68.68 0 0 1 .13.59.58.58 0 0 1-.53.17c-5.39-2-10.85-1.56-16.23-.19-10.48 2.67-18.63 8.76-24.95 17.43a81.36 81.36 0 0 0-9.91 18.44c-1.67 4.25-3.31 8.51-5.07 12.73-1.58 3.83-3.43 7.54-5.38 11.19A71.82 71.82 0 0 1 64 220.23ZM80.31 253a27.35 27.35 0 0 1-4.71 3 4.35 4.35 0 0 1-1 .33.44.44 0 0 1-.34-.2.46.46 0 0 1 0-.4 2.1 2.1 0 0 1 .61-.58C79 252.9 82.42 249.91 86 247a184.57 184.57 0 0 0 17.17-16.15 114 114 0 0 0 13-17 140.54 140.54 0 0 0 8.68-16.47c1.19-2.6 2.39-5.19 3.68-7.74a31.82 31.82 0 0 1 4.47-6.52 2.17 2.17 0 0 1 1.17-.87c.15 0 .5.23.44.51a1.55 1.55 0 0 1-.22.42 40.4 40.4 0 0 0-6.49 10.28c-2 4.26-3.87 8.6-6 12.78a112 112 0 0 1-16.67 24.08A186.5 186.5 0 0 1 80.31 253Zm47.45 49.81a.48.48 0 0 1-.32.23c-.11 0-.33 0-.36-.09a3.29 3.29 0 0 1-.37-1q-1.15-7.93-2.28-15.87c-.18-1.27-.38-2.53-.55-3.8-.13-1.06-.23-2.12-.3-2.8.09-1.45-.08-2.54.36-3.56a.72.72 0 0 1 .45-.35.44.44 0 0 1 .48.55c-.62 4.25.6 8.35 1.1 12.51s1.21 8.31 1.81 12.47a2.83 2.83 0 0 1-.02 1.69Zm.26-41.85a8.84 8.84 0 0 0-8.35 2.22c-3.26 3-6.13 6.4-7.66 10.7-.3.84-.46.89-1.26.77-8.69-1.28-15.4-5.77-20.59-12.71l-.11-.19c-.41-.62-.4-.79.24-1.19a163.66 163.66 0 0 0 14.22-10.34A62.36 62.36 0 0 0 116.22 238a139 139 0 0 0 13-21.16c.67-1.34 1.42-2.64 2.1-4a120.65 120.65 0 0 0 6.54-15.83 3.72 3.72 0 0 1 .77-1.73 14.87 14.87 0 0 1 4.68-6.77 4.91 4.91 0 0 1 3.54-1.1c.35.35.06.55-.1.75a21.65 21.65 0 0 1-6 5.11c-.63.35-1.29.69-1.22 1.58a3.4 3.4 0 0 0 1.91.87 49.17 49.17 0 0 0 9 .43 24.1 24.1 0 0 0 5.47-1 12.34 12.34 0 0 0 4-2.07 25.4 25.4 0 0 0 8.12-9.82c.2-.46.2-1.14.93-1.38a9.39 9.39 0 0 1-.21 4 17.2 17.2 0 0 1-3.51 8.62 2.34 2.34 0 0 0-.34.54.79.79 0 0 0 .46 1 6.39 6.39 0 0 0 1.06.13 42.46 42.46 0 0 0 8.13-.27c.46-.08.71.15.62.57-.19 1-.4 2-.64 2.93-1 4.23-2.11 8.46-3.12 12.69-.32 1.32-.52 2.67-.72 4a13.48 13.48 0 0 0 .47 6.15c.46 1.5 1 3 1.56 4.45.22.6.47 1.19.73 1.78 1.23 2.79-.84 6.06-3.25 6.73-.48.14-.95.3-1.44.42-5.62 1.41-9 5.2-11.19 10.35-.11.26-.19.54-.3.8-.25.59-.46 1.21-.76 1.77a125.91 125.91 0 0 1-7.51 11.78 7.38 7.38 0 0 1-5.83 3.15 29.25 29.25 0 0 1-11-1.32c-1.42-.41-2.77-.91-4.17-1.21Zm45.92 111.18c-2.46 2.68-5.1 5.21-7.61 7.86-2.75 2.91-5.42 5.9-8.16 8.82Q147.7 400 137.53 411.5c-3.65 4.13-7.32 8.23-11.3 12.05-2.42 2.33-4.62 4.88-6.94 7.32-3.84 4-7.53 8.24-11.54 12.11l-1.55 1.49a12.75 12.75 0 0 1-12.49 3.3 24.54 24.54 0 0 1-15.31-10.22 43.16 43.16 0 0 1-4.73-9.34A93.86 93.86 0 0 1 69 409.76c-.27-1.84-.77-3.63-1.15-5.45-.17-.81 0-1 .86-1a50.92 50.92 0 0 0 14.23-1.57c4.2-1.15 8.48-2 12.63-3.32l3-1a45.73 45.73 0 0 0 .43 8.87c.06.42 0 .86.08 1.28a3 3 0 0 1-1.15 3 6.82 6.82 0 0 0-1.27 1.45c-.46.6-.47 1-.15 1.33s.77.21 1.26-.37a40.21 40.21 0 0 1 6.32-5.77c1.86-1.45 3.74-2.88 5.65-4.26 6.61-4.78 12.86-10 19.33-15a194.86 194.86 0 0 0 14.8-12.72 101 101 0 0 0 8-8.71 163.65 163.65 0 0 0 14.63-20.36c1.41-2.32 3-4.53 4.42-6.84q2.37-3.83 4.88-7.56a40.62 40.62 0 0 1 5.83-6.85 9 9 0 0 1 3-1.95 89.69 89.69 0 0 1 16.72-4.54 3.75 3.75 0 0 1 1.7-.07 1 1 0 0 1 .81.88 2.31 2.31 0 0 1-1.25 2.52 13.66 13.66 0 0 1-2 .67c-2.4.71-4.84 1.25-7.21 2.05a16.3 16.3 0 0 0-6.54 4c-1.35 1.38-2.73 2.73-4.07 4.11-.55.57-.57 1.18-.13 1.47s.84.2 1.32-.29c1.05-1.08 2.11-2.15 3.11-3.27a17.73 17.73 0 0 1 8.78-5.08c2.54-.7 5.13-1.24 7.62-2.15a4.44 4.44 0 0 1 3.88.69c1.24.74 1.6 3.92-.16 5.09a9.76 9.76 0 0 1-2.55 1.09 49.86 49.86 0 0 1-7.53 1.66 13.17 13.17 0 0 0-7.77 3.72c-.91.91-1.83 1.81-2.73 2.73a3.34 3.34 0 0 0-.6.88.59.59 0 0 0 .19.76.68.68 0 0 0 .79.13 3.33 3.33 0 0 0 .81-.68 33.7 33.7 0 0 1 3.55-3.42 9.83 9.83 0 0 1 5-2.31 75.61 75.61 0 0 0 8.17-1.75c.69-.2 1.37-.42 2-.65a3.2 3.2 0 0 1 2.3.08 2 2 0 0 1 1.37 1.52 4.92 4.92 0 0 1-1 4.63 7.7 7.7 0 0 1-4 2.68l-5 1.23a18.22 18.22 0 0 0-7.38 3.28c-.72.59-1.37 1.25-2 1.9a2.48 2.48 0 0 0-.45.73.65.65 0 0 0 .23.76.66.66 0 0 0 .79.1 2.79 2.79 0 0 0 .65-.54 15.18 15.18 0 0 1 7.89-4.48c1.18-.3 2.36-.6 3.54-.84a20 20 0 0 0 3.88-1.2 5.55 5.55 0 0 1 4-.2c1.35.44 1.74 1.27 1.35 2.66a5.53 5.53 0 0 1-2.4 3.18 22.38 22.38 0 0 1-2.24 1.25 110.35 110.35 0 0 0-14.37 8.51c-1.22.88-2.52 1.64-3.79 2.44a79.25 79.25 0 0 0-15.97 13.23Zm105.74 27c-.18 1.18-.36 1.28-1.56 1.2-4.07-.24-8.14-.58-12.21-.69-3.65-.1-7.29-.22-10.93-.44a41.81 41.81 0 0 1-8.26-1.22 14.54 14.54 0 0 1-3.37-1.37 7.74 7.74 0 0 1-2.16-1.75 4.3 4.3 0 0 1-.19-5.7 24.94 24.94 0 0 1 2.06-2.18 13.2 13.2 0 0 0 3.47-6.31 10.55 10.55 0 0 0-.27-6.12 16.73 16.73 0 0 0-8.95-10.17 25.51 25.51 0 0 0-9.09-2.31 12.37 12.37 0 0 0-5.82 1.25 16.44 16.44 0 0 0-4.52 2.85c-4.54 4.11-5.86 9.15-4.19 15 .52 1.85 1.25 3.64 1.91 5.46a10.42 10.42 0 0 1 .68 2.69c.18 2-.49 2.9-2.48 3.28a21.24 21.24 0 0 1-4.06.24c-3.15 0-6.3-.1-9.45 0-4.64.22-9.29.25-13.94.33a85.8 85.8 0 0 1-8.78-.5c-1.36-.12-1.53-.3-1.52-1.77 0-2.14 0-4.29.16-6.43.2-4 .49-8 .69-12a3.33 3.33 0 0 1 1.07-2.45 57.2 57.2 0 0 1 8.44-6.93c2.46-1.61 4.89-3.24 7.28-4.93a79.22 79.22 0 0 1 7.84-4.86c2.64-1.43 5.31-2.79 8-4.22a19.74 19.74 0 0 0 2.35-1.48 6.72 6.72 0 0 0 2.55-4.1 3 3 0 0 0-1.55-3.63 22.72 22.72 0 0 0-2.4-1c.33-.56.67-1.1 1-1.67a6.28 6.28 0 0 0 .13-5.39c-.32-.81-.73-1.17-2.3-2.27a5.79 5.79 0 0 0 .84-4 4.3 4.3 0 0 0-2.72-3.32 14.59 14.59 0 0 0-1.43-.42c-.48-.14-.72-.42-.54-.95a3.34 3.34 0 0 0 0-2.31 2.36 2.36 0 0 0-2.2-1.75 9.23 9.23 0 0 0-2.35.11 120.14 120.14 0 0 0-15.12 4 17 17 0 0 0-7.75 5.5 100.84 100.84 0 0 0-7.08 10c-2.84 4.47-5.72 8.91-8.54 13.38a1.88 1.88 0 0 1-1.92 1c-.64-.05-1.28 0-1.93 0a9.87 9.87 0 0 1-8-4 16 16 0 0 1-3.11-15.12 12 12 0 0 1 6.38-7.44 17.6 17.6 0 0 1 8.27-2 28.62 28.62 0 0 1 9.67 1.62 4 4 0 0 0 4.35-.91 6.2 6.2 0 0 0 1.64-2.48 13.57 13.57 0 0 0 .83-4.41c.14-4.5.08-9-.1-13.51-.16-4.22-.36-8.44-.54-12.65a4.68 4.68 0 0 1 0-.65.75.75 0 0 1 .65-.73c1.13-.15 2.27-.33 3.4-.43 2-.17 4-.28 6-.42 4.06-.28 8.13-.59 12.2-.83 3.64-.22 7.29-.16 10.94-.07a6.9 6.9 0 0 1 6.36 8.92 50 50 0 0 1-1.76 4.84 17 17 0 0 0-1.12 8.62 13.51 13.51 0 0 0 1.32 4.5 18 18 0 0 0 13 10 25.67 25.67 0 0 0 11.69-.28c6.13-1.59 9.88-5.47 11.39-11.56a27.08 27.08 0 0 0 .26-10c-.26-2.05-.79-4.06-1.22-6.09a6.48 6.48 0 0 1-.21-1.91 2.19 2.19 0 0 1 2.36-2.24c1.79 0 3.59.1 5.36-.06 4.43-.4 8.86-.48 13.29-.45 4.22 0 8.44 0 12.65.42 3.72.34 3.29.38 3.23 3.53-.1 5.72-.32 11.44-.56 17.16-.12 3.07-.37 6.14-.58 9.2a27.37 27.37 0 0 0 .18 6 7.9 7.9 0 0 0 .86 2.63 2.63 2.63 0 0 0 2.43 1.48 6.87 6.87 0 0 0 2.11-.31 15.17 15.17 0 0 1 5.53-.47c1.64.13 3.3.16 4.92.42a18.15 18.15 0 0 1 8 3.39 37.61 37.61 0 0 1 4.16 3.71 10.54 10.54 0 0 1 2.77 10.85 11.27 11.27 0 0 1-1.66 3.71 28.66 28.66 0 0 1-4.8 5.46 15.57 15.57 0 0 1-8 3.38c-4 .6-7.65-.55-11.35-1.63-1-.28-1.91-.61-2.88-.82a3.89 3.89 0 0 0-4 1.5 6.86 6.86 0 0 0-1.48 3.74c-.33 2.91-.62 5.83-.93 8.74-.33 3.2-.68 6.4-1 9.6-.38 3.7-.74 7.4-1.13 11.1-.2 1.76-.4 3.54-.66 5.31Zm101.75-7.7c2.42 2.12 4.88 4.19 7.3 6.31a9.59 9.59 0 0 1 2.1 2.12c.48.8-.1 1.81-.11 2.74a19.22 19.22 0 0 1-.14 2.14c-.11.95-.35 1.18-1.35 1.36a30.72 30.72 0 0 1-4.69.41c-4.15.08-8.3.2-12.45.27-1.64 0-3.29 0-4.93-.07-4.22-.17-8.43-.36-12.65-.54a19.71 19.71 0 0 0-4.91.33 10 10 0 0 0-2.83 1 3.64 3.64 0 0 0-2.08 3.88 7.93 7.93 0 0 0 .33 1.46c.65 2.19 1.34 4.37 2 6.57a36.24 36.24 0 0 1 1 4 9.85 9.85 0 0 1-2.32 8.19 14.69 14.69 0 0 1-5.95 4.1 20.56 20.56 0 0 1-15.08.36 13.09 13.09 0 0 1-5.74-4 19.09 19.09 0 0 1-3.68-6.5 9.77 9.77 0 0 1 2.28-9.94c.57-.64 1.25-1.18 1.87-1.78a7 7 0 0 0 1.7-2.45 4.58 4.58 0 0 0-1.38-5.23 10.4 10.4 0 0 0-3.64-1.75 94.49 94.49 0 0 0-10.52-2.08c-3.11-.44-6.23-.86-9.36-1.19-3.77-.38-7.55-.63-11.35-.68-1 0-2-.13-3-.23a.62.62 0 0 1-.57-.75c.16-1.42.34-2.84.49-4.26.25-2.28.47-4.55.71-6.83.54-5.12 1.12-10.23 1.62-15.36.28-2.91.53-5.83.95-8.74a5.66 5.66 0 0 1 .9-2.38 2.59 2.59 0 0 1 2.76-1.21 14.78 14.78 0 0 1 1.45.39c1.85.54 3.69 1.12 5.55 1.63a20.35 20.35 0 0 0 9.78.08 14 14 0 0 0 5.95-2.83 25.8 25.8 0 0 0 5.88-6.49 14.65 14.65 0 0 0 2.24-7.73 10.65 10.65 0 0 0-2.29-7c-3.34-4.14-7.34-7.41-12.64-8.76a22.8 22.8 0 0 0-3.59-.6c-1.71-.14-3.43-.15-5.14-.21a18.46 18.46 0 0 0-4.67.6c-1.59.36-2.21 0-2.69-1.61a10.19 10.19 0 0 1-.43-2.75c0-2.5 0-5 .2-7.5.24-3.28.49-6.57.62-9.85.21-5 .56-10 .42-15 0-.83.14-1 1-1 1.29 0 2.59 0 3.87.08a75.78 75.78 0 0 0 9.65.1c6.22-.24 12.44-.26 18.67-.16 1.71 0 3.43-.06 5.14-.09a7.21 7.21 0 0 0 2.52-.51 2.41 2.41 0 0 0 1.7-2.47 12.39 12.39 0 0 0-.26-1.9 45.73 45.73 0 0 1-1-7.64 11.67 11.67 0 0 1 1.75-6.53 24.79 24.79 0 0 1 5.06-6.07 18.38 18.38 0 0 1 6.54-3.59 12 12 0 0 1 9.54 1c6 3.21 8.13 8.52 7.92 15a17.43 17.43 0 0 1-3 9.48 10.87 10.87 0 0 0-.78 1.52 2.63 2.63 0 0 0 1.27 3.45 9.59 9.59 0 0 0 2.86.88c1.7.27 3.39.55 5.09.78 6.66.9 13.32 1.78 20 2.7 1.42.2 2.81.54 4.23.74a1.49 1.49 0 0 1 1.31 1.22 13.87 13.87 0 0 1 .5 2.3 61 61 0 0 1 .5 6.63v11.59c-.06 4.29-.37 8.57-.85 12.84a6.72 6.72 0 0 1-.91 3.05c-.44.66-.89.68-1.28 0-.7-1.17-1.36-2.35-2.07-3.51a18.8 18.8 0 0 0-3.84-4.59 7.34 7.34 0 0 0-3.18-1.7 3.74 3.74 0 0 0-4.43 2.13 19.84 19.84 0 0 0-.69 2h-.39c-2.89-2.17-6.34-2.92-9.72-3.83a32.19 32.19 0 0 0-10.84-1 8.87 8.87 0 0 0-3.71.95 2.49 2.49 0 0 0-1.29 3.57c.15.39.55.66.55 1.14-.33.45-.89.41-1.33.6-2.25 1-2.95 2-2.8 4.48a1.14 1.14 0 0 1-.87 1.4 5 5 0 0 0-3.14 3.29 3.82 3.82 0 0 0 .28 3.3l.69 1.12-1.25.91a4.27 4.27 0 0 0-1.77 3.51 8.47 8.47 0 0 0 1.45 5.06 18.72 18.72 0 0 0 5.68 5.46c2.29 1.47 4.52 3 6.73 4.59A56.11 56.11 0 0 1 362 372c1.28 1.34 2.59 2.66 3.91 4a30.06 30.06 0 0 0 12.88 7.82c1.89.56 2.44.51 1.05 2.68a2.85 2.85 0 0 0 .14 3.41 9.35 9.35 0 0 0 1.45 1.54Zm15.93-26.8c-1 1.73-1.93 3.5-3.09 5.14s-2.1 3.24-3.15 4.85a45.31 45.31 0 0 1-5.71 6.95 4.39 4.39 0 0 1-4.71 1.17 29.28 29.28 0 0 1-10.85-5.4 55.08 55.08 0 0 1-5.76-5.46 67.88 67.88 0 0 0-14.41-11.76 30.92 30.92 0 0 1-4.16-3 12.13 12.13 0 0 1-2.73-3.55 6.61 6.61 0 0 1-.68-3.95 2.49 2.49 0 0 1 3-2.3 9.12 9.12 0 0 1 2.24.7 22.44 22.44 0 0 1 3 1.62c3.27 2.17 6.51 4.4 9.76 6.61a22.36 22.36 0 0 1 6.07 6 5.79 5.79 0 0 0 1 1.12.71.71 0 0 0 1 0 .66.66 0 0 0 .15-.95 26.63 26.63 0 0 0-5.76-6.31c-2.37-1.72-4.79-3.38-7.2-5.05-1-.69-2-1.34-3-2a20.77 20.77 0 0 0-5.88-3 4.45 4.45 0 0 1-2.54-2.46 2 2 0 0 1-.17-1.25 3.6 3.6 0 0 1 4.38-3 26 26 0 0 1 3.82 1.37 55.76 55.76 0 0 1 6.35 3.57c2.06 1.41 4.13 2.82 6.24 4.16a14.47 14.47 0 0 1 4.85 5.05 4.58 4.58 0 0 0 1.46 1.83.64.64 0 0 0 .78 0 .76.76 0 0 0 .24-.78 1.19 1.19 0 0 0-.08-.2c-1.72-2.82-3.51-5.53-6.49-7.26-2-1.15-3.81-2.53-5.72-3.8a39 39 0 0 0-10.28-5.2 2 2 0 0 1-1.46-1.89 2.08 2.08 0 0 1 .86-2.07 4.67 4.67 0 0 1 2.16-.89 9.91 9.91 0 0 1 6.28.7c.77.38 1.54.76 2.3 1.17a69.8 69.8 0 0 1 9.76 6.58 21 21 0 0 1 4.21 4.27 9.47 9.47 0 0 0 1 1.12.55.55 0 0 0 .77 0 .65.65 0 0 0 .3-.74 5 5 0 0 0-.54-.92 23 23 0 0 0-5.07-5.2 70 70 0 0 0-11.12-7.24 12.46 12.46 0 0 0-4.67-1.48 3.27 3.27 0 0 1-2.71-1.84.92.92 0 0 1 .34-1.3 4.65 4.65 0 0 1 2-.76 25 25 0 0 1 4.06-.35 37.37 37.37 0 0 1 8.66 1.34c1.25.33 2.46.77 3.7 1.11a13.71 13.71 0 0 1 5.72 3.24 21.32 21.32 0 0 1 4.47 5.18.86.86 0 0 0 1.24.47c.35-.16.59-.44.42-.85a4.5 4.5 0 0 0-.55-.91 31.65 31.65 0 0 0-3-3.61 3.5 3.5 0 0 1 .17-4.66 2.28 2.28 0 0 1 2-.54 5.44 5.44 0 0 1 2.64 1.33 14.88 14.88 0 0 1 3.24 3.7c1 1.64 2 3.31 2.92 5 .77 1.37 1.42 2.82 2.24 4.15a31.16 31.16 0 0 1 4 11.44 35.34 35.34 0 0 0 2 7.43 3.82 3.82 0 0 1-.31 3.57Zm10.39 2.42c-2.52-1-4.93-2.25-7.52-3.07a.7.7 0 0 1-.57-.78 6.14 6.14 0 0 0-.75-2.87 23.89 23.89 0 0 1-1.14-3.9c-.17-.73.91-1.87 1.69-1.78a.74.74 0 0 1 .5.36c.94 2.52 2.9 4.42 4.05 6.8a3 3 0 0 0 1.25 1.44 10.23 10.23 0 0 1 3.43 3.46c-.1.71-.51.56-.94.35Zm13.46-221.25a.49.49 0 0 1 .35-.2 1.63 1.63 0 0 1 .61.13 26.23 26.23 0 0 0 6.66 1.49c3.47.48 6.94.92 10.36 1.67a24 24 0 0 1 16 11.21 48.84 48.84 0 0 1 4.43 8.78 14 14 0 0 1 1.06 4.26c0 .23 0 .42-.08.51a1.29 1.29 0 0 1-.5.33.41.41 0 0 1-.35-.18 3.77 3.77 0 0 1-.27-.8 13.57 13.57 0 0 0-.3-1.69 37.57 37.57 0 0 0-8.58-15.14 22.58 22.58 0 0 0-12.6-6.34c-3.66-.66-7.34-1.15-11-1.72a22.48 22.48 0 0 1-5-1.28 1.44 1.44 0 0 1-.84-.62.5.5 0 0 1 .05-.4Zm35.29 49a7.37 7.37 0 0 1-.07-1.49.49.49 0 0 1 .38-.45.38.38 0 0 1 .49.27 3.61 3.61 0 0 1 .29 1 26.51 26.51 0 0 1 .22 4.27 33.58 33.58 0 0 1-4.32 15.5 17.79 17.79 0 0 1-1.19 1.78.62.62 0 0 1-.92.2c-.32-.25-.1-.52 0-.75.3-.48.66-.93.95-1.42a34.77 34.77 0 0 0 4.33-15.52 15 15 0 0 0-.16-3.39Zm-40.31-39.5a.46.46 0 0 1 .57-.13c6.69 3 13 6.65 17.91 12.25a44 44 0 0 1 5 6.95 63.93 63.93 0 0 1 4.36 9.06 3.16 3.16 0 0 1 .36 1.43c-.07.13-.11.36-.19.37a.82.82 0 0 1-.57-.1 4.49 4.49 0 0 1-.84-1.71 62.48 62.48 0 0 0-4.8-9.57 41.72 41.72 0 0 0-17.36-15.49c-1.22-.6-2.42-1.24-3.62-1.87a4.16 4.16 0 0 1-.71-.47c-.23-.19-.3-.44-.11-.72Zm-27.44-4a9 9 0 0 1 3-3.25 19.51 19.51 0 0 1 5.39-2.52.85.85 0 0 1 .42 0c.13 0 .32.13.33.21a.82.82 0 0 1-.07.59 4 4 0 0 1-1.71.83 17.22 17.22 0 0 0-4.15 2.15 8.58 8.58 0 0 0-2.3 2.5.77.77 0 0 1-.62.48.41.41 0 0 1-.44-.39 1.13 1.13 0 0 1 .15-.56Zm-8.21 10.87c.14 0 .31 0 .41.06a13.18 13.18 0 0 1 1.15.95c2 1.86 4.08 3.59 6.19 5.29a37 37 0 0 0 15.44 7.08 84.38 84.38 0 0 1 9.51 2.55 20.33 20.33 0 0 1 3.91 1.73c.25.16.51.39.38.68s-.56.33-.9.23c-.14 0-.28-.09-.41-.15a55.19 55.19 0 0 0-12-3.74 52.82 52.82 0 0 1-8.78-2.73 34.71 34.71 0 0 1-7-4.11 95 95 0 0 1-7.32-6.28 4.15 4.15 0 0 1-.75-1 .46.46 0 0 1 .17-.52Zm84 96.09a54.36 54.36 0 0 1-16.95 11.81 71 71 0 0 1-10.69 3.76c-1.24.33-2.48.65-3.72 1a5.59 5.59 0 0 1-2.35.25 15.4 15.4 0 0 0-.29-2.35 20.29 20.29 0 0 0-.92-2.16 25.92 25.92 0 0 1-1.6-7.73c-.12-1.43-.22-2.85-.34-4.28a4.78 4.78 0 0 0-.17-1.06 2 2 0 0 0-2.25-1.56 13.71 13.71 0 0 0-2.09.47 2.84 2.84 0 0 0-.78.34c-3.36 2.06-7 3.56-10.52 5.28a27.52 27.52 0 0 1-8.3 2.72 13.75 13.75 0 0 1-2.13.09 5.79 5.79 0 0 1-5.4-3.25c-.61-1.13-1.23-2.25-1.79-3.41a17.48 17.48 0 0 0-2.59-3.93 11.33 11.33 0 0 1-2.28-4.08 14.24 14.24 0 0 0-.89-2.18 7.21 7.21 0 0 0-2.73-3 8.21 8.21 0 0 0-1.1-.66 3.6 3.6 0 0 1-2.62-3.51 2.18 2.18 0 0 0-1.14-1.72 8.58 8.58 0 0 0-3.8-1.36 13.26 13.26 0 0 1-5.89-2.39 6 6 0 0 1-2.76-5.27 18.48 18.48 0 0 1 .95-5.47 48.36 48.36 0 0 0 2.23-16.48 129 129 0 0 0-2.18-17.42c-.53-3.17-1-6.36-1.45-9.54a9.07 9.07 0 0 1-.06-1.28c0-.2 0-.46.27-.51 1.09-.18 1.22-1 1.43-1.89a40.3 40.3 0 0 1 2.55-7 3.61 3.61 0 0 1 .23-.36c.59.37.66 1.05.93 1.6a25 25 0 0 0 6.94 8.88 32.12 32.12 0 0 0 6.81 4 61 61 0 0 0 10.35 3.38 28.84 28.84 0 0 0 8.93.83c.78-.06 1.57 0 2.36 0a4 4 0 0 1 3.56 2 21.51 21.51 0 0 0 1.32 1.95 10.48 10.48 0 0 0 5.37 3.72 1.35 1.35 0 0 0 1.91-1.12 6.65 6.65 0 0 0 .05-1.48 15.39 15.39 0 0 1 .64-4.87 8.51 8.51 0 0 1 .86-1.95 4.07 4.07 0 0 1 5.54-1.73 10.91 10.91 0 0 1 4.09 3.38 23.19 23.19 0 0 1 4.52 9.38 21.28 21.28 0 0 1 .46 7.87 10.22 10.22 0 0 1-.89 3.07 4.35 4.35 0 0 1-3.1 2.71 3 3 0 0 0-.8.29 1.23 1.23 0 0 0-.69 1.6 13.18 13.18 0 0 0 1.18 2.75 81.79 81.79 0 0 0 6.65 9.72 27.17 27.17 0 0 0 17.91 9.53 1.65 1.65 0 0 1 1.63 1.31c.92 2.93 1.88 5.85 2.91 8.74.64 1.81 1.39 3.59 2.14 5.36a17.55 17.55 0 0 0 2.72 4.62 14.25 14.25 0 0 1-2.22 2.63Z" fill="#000000" class="color000 svgShape"></path><path fill="#070808" d="M165.5 209a2.23 2.23 0 0 0-3.79-1.23 4.82 4.82 0 0 0-1.79 3.93c0 2.43 1.59 3.33 3.83 2.2l.19-.08a.26.26 0 0 0 0-.4c-.39.16-.81.26-1-.24a1.09 1.09 0 0 1 .58-1.38.39.39 0 0 1 .5.23 2 2 0 0 1-.06 1.38.32.32 0 0 0 .4 0 7.18 7.18 0 0 0 1.1-2.28 4 4 0 0 0 .04-2.13Zm-2.66 2.48a.69.69 0 0 1-1.08-.22 2 2 0 0 1 1.07-2.64.54.54 0 0 1 .7.32 1.73 1.73 0 0 1 .1.5 2.53 2.53 0 0 1-.79 1.99Z" class="color080707 svgShape"></path><path d="M142.17 47.16a29.22 29.22 0 0 0-9.61-11.86 31.53 31.53 0 0 0-24.62-5.53A35.41 35.41 0 0 0 84.45 44.6 33.08 33.08 0 0 0 78.57 71c2.86 14.49 14.64 23 26.84 24.29 1.14.12 2.28.17 3.42.26.71 0 .83.18.87.92v1.07a1 1 0 0 1-.81 1.09c-.81.26-1.62.54-2.42.84a5.62 5.62 0 0 0-1.13.61 1 1 0 0 0-.18 1.33.75.75 0 0 0 1.26 0c.88-1 2.08-1.08 3.28-1.34 0 .38.09.66.09.94 0 1.22 0 2.43.1 3.65a1.33 1.33 0 0 1-.76 1.38 7 7 0 0 0-2.07 1.52 1.25 1.25 0 0 0-.41 1.35 1.42 1.42 0 0 0 1.17.82 4.56 4.56 0 0 0 .64 0c1.74.05 1.74.05 1.81 1.66v1.5c0 .28 0 .56-.23.78s-.59.43-.59.85.35.74.77.9c.59.22.56.8.71 1.24a11 11 0 0 0 2.81 4.75.48.48 0 0 1 .19.55c-.08.25-.31.25-.5.31a18.83 18.83 0 0 1-6.61.21c-4.42-.32-8.8-1-13.24-1.21a46.74 46.74 0 0 0-12.15 1A38.41 38.41 0 0 0 60.36 135a73.93 73.93 0 0 0-9.59 14.18 20.3 20.3 0 0 0-2.27 7.1 3 3 0 0 0 .09 1.69.74.74 0 0 0 .48.35.63.63 0 0 0 .54-.24 6.3 6.3 0 0 0 .38-1.21 28.11 28.11 0 0 1 .86-3.54 45.81 45.81 0 0 1 2.69-5.83 70.24 70.24 0 0 1 8.71-12.19 34.24 34.24 0 0 1 6.42-5.66c7.42-5.06 15.7-7 24.58-6.72 3.36.12 6.7.54 10 .91a36.48 36.48 0 0 0 9 .27 7.72 7.72 0 0 0 6.86-5.61c.15-.47.27-1 .4-1.44a16.42 16.42 0 0 1 .5-1.86 4.45 4.45 0 0 1 1-1.77c.35-.29 1.1-.09 1.66-.11h.43c.84-.38.52-.84.2-1.29h-.12a1.83 1.83 0 0 0-1.18-.38c-1.51-.09-1.51-.1-1.31-1.92 1.4.23 2.53.76 2.83 2.32h-.14a1.58 1.58 0 0 1 .17 1.72c-.35.39-.66.83-.16 1.28a1 1 0 0 0 1.36-.18 2.16 2.16 0 0 0 .69-1.74 4.88 4.88 0 0 0-2.64-4.37 8.77 8.77 0 0 0-1.6-.6.9.9 0 0 1-.67-1v-3.44a1.17 1.17 0 0 1 .81-1.31 23.09 23.09 0 0 0 2.49-1.24 4.12 4.12 0 0 0 1.58-1.41 1.42 1.42 0 0 0-.44-2.06 4 4 0 0 0-1.82-.58c-.56 0-1.14 0-1.71-.07s-.78-.16-.77-.75.1-1 .06-1.5c-.1-1.13.42-1.57 1.51-1.85a14.49 14.49 0 0 0 3.11-1.42 35.94 35.94 0 0 0 18.42-22.61 30.27 30.27 0 0 0-1.6-21.76Zm-31.28 28.91a1.07 1.07 0 0 1 .48-1.28c.7-.46 1.39-.94 2.21-1.49 1.47 5.89 2.8 11.65 5.32 17.17-2.57.88-5.05 1.71-7.66 2.34a12 12 0 0 1 .09-3.29 46 46 0 0 0-.44-13.45Zm3.31-19.39a5.73 5.73 0 0 1 1.34-2.87c1.14-1.27 2.43-1.17 3.35.27a6.09 6.09 0 0 1 .85 3.26 17.08 17.08 0 0 1-2.39 8.33c-.58 1.06-1.31 2-2 3-.15.22-.32.47-.65.47a33.29 33.29 0 0 1-.5-12.46ZM111.48 102c-.13-2.82-.41-2.23 2.21-2.72 1.46-.27 3-.33 4.44-.47.7-.06.88.1.86.85 0 2.22.27 1.92-1.81 2.76-1.44.59-2.86 1.21-4.31 1.8-.38.15-.74.45-1.3.29-.03-.81-.05-1.65-.09-2.51Zm.7 4.32c1.57-.68 3.13-1.37 4.7-2 .58-.25 1.18-.45 2-.75 0 .55.07.83.07 1.11 0 .92-.06 1.85-.1 2.77-.88.44-1.81.07-2.72.14-1.2.1-2.41.15-3.62.2-.34 0-.74.08-.84-.41a.82.82 0 0 1 .51-1.05Zm4.4 13.68c-.56.81-1 .88-1.75.24a8.77 8.77 0 0 1-2.61-4.8.63.63 0 0 1 .59-.75l5.78-1c-.45 2.39-.76 4.5-2.01 6.31Zm1.08-7.8c-1.69.28-3.35.67-5 1-.56.11-.77-.06-.81-.66 0-.78-.07-1.57-.1-2.35 0-.55.28-.76.77-.8l3.62-.35v.11h1.71c1.09.08 1.13.14 1.23 1.29.12 1.56.04 1.56-1.42 1.77Zm1.48-15.8a.69.69 0 0 1-.61.75c-2.19.26-4.37.51-6.56.74-.42 0-.65-.22-.66-.64-.09-3.34-.49-2.6 2.32-3.51 1.49-.48 3-.86 4.5-1.29a1.71 1.71 0 0 1 1.19 0c-.06 1.28-.12 2.62-.18 3.96Zm2.49 2.3c.7.06 1.55-.4 2.11.42-.32.71-1.07.87-1.66 1.22-.36.2-.76.33-1.47.63v-1.33c.05-.85.13-1 1.02-.93Zm16.49-20.94a34 34 0 0 1-14.59 12.87 13.88 13.88 0 0 1-1.38.58 8.12 8.12 0 0 1-.9.24c-.19-1.25-1.13-2.09-1.55-3.22a123 123 0 0 1-4.53-15.4 2 2 0 0 1 .51-2 22.57 22.57 0 0 0 4.71-8.09 13.32 13.32 0 0 0 .7-7.57 5.7 5.7 0 0 0-1.62-3 3.35 3.35 0 0 0-4.32-.27 6.18 6.18 0 0 0-2.25 3.31 18.72 18.72 0 0 0-.66 6.36 66 66 0 0 0 .81 8.54 1.54 1.54 0 0 1-.54 1.69 9 9 0 0 1-1.92 1.39c-.53-.24-.53-.77-.67-1.22a25.91 25.91 0 0 0-2.24-4.97 13.32 13.32 0 0 0-2.49-3.2 7.13 7.13 0 0 0-3.18-1.7 4.1 4.1 0 0 0-5 2.58 7 7 0 0 0-.3 3.8 11.36 11.36 0 0 0 1.61 4.18 8 8 0 0 0 8.19 3.92 14.69 14.69 0 0 0 1.48-.23c1.32-.26 1.3-.27 1.48.89a62.13 62.13 0 0 1 0 15.83c-.08.85-.14.92-1.1.89A29.83 29.83 0 0 1 97 91.47c-9.53-4.28-15.24-11.61-17-21.85a30.65 30.65 0 0 1 4-21.26 34 34 0 0 1 25.14-17.1A29.65 29.65 0 0 1 131 36.14a27.43 27.43 0 0 1 11.53 17c2.02 8.8.31 17.01-4.41 24.63Zm-29.95-3.19c-3.74 1.19-7 .08-8.76-3.26a9.09 9.09 0 0 1-1.18-4.42 3.13 3.13 0 0 1 1.41-3c1.3-.73 2.47-.23 3.6.48a7.54 7.54 0 0 1 2 1.88 22 22 0 0 1 3.4 7.32.72.72 0 0 1-.47 1.01Z" fill="#000000" class="color000 svgShape"></path><path fill="#020303" d="M437.2 99.38a3.93 3.93 0 0 0-1.2-1.17 10.06 10.06 0 0 0-2.75-1.16c-1.16-.34-2.33-.62-3.64-1 .06-.94.1-1.66.17-2.36.09-.93.29-1.85.3-2.77a1.65 1.65 0 0 1 1.26-1.73c.94-.33 1.86-.74 2.8-1.06a1.53 1.53 0 0 1 1.41 0 1.72 1.72 0 0 1-.2.38c-.31.38-.76.72-.35 1.28.29.4.88.3 1.47-.29s1.13-1.15.76-2a2 2 0 0 0-2.14-1.09c-.28 0-.56.12-.84.16a13 13 0 0 0-2.86.87c-.69.28-.9.1-.87-.64s.12-1.71.13-2.57a.66.66 0 0 0-.65-.7.73.73 0 0 0-.73.66c0 .21-.07.42-.1.64-.08.63-.17 1.27-.23 1.91-.22 2.29.08 1.73-1.91 2.94a33.11 33.11 0 0 0-4 2.81 5.23 5.23 0 0 0-1.41 1.59 1.57 1.57 0 0 0 .73 2.33 9 9 0 0 0 2.05.6c.9.19 1.83.3 2.75.43.3 0 .59.17.58.49a10.8 10.8 0 0 1-.28 3.34c-1.39-.22-2.66-.44-3.93-.62a19 19 0 0 0-4.7-.2.65.65 0 0 0-.55.57.73.73 0 0 0 .5.84 1.63 1.63 0 0 0 .61.13 41.33 41.33 0 0 1 6.18.61c2.54.41 2 .39 2.09 2.32 0 .64 0 1.29.07 1.93a10.41 10.41 0 0 0 .39 1.65 1.07 1.07 0 0 0 .78.67c.3.08.82-.22.81-.51a7.4 7.4 0 0 0-.15-.82 11.78 11.78 0 0 1-.07-4.66 23.08 23.08 0 0 0 4.79-.12 5 5 0 0 0 2.56-1 2 2 0 0 0 .37-2.68Zm-9.15-5.08c-.05 1.66-.21 1.57-1.6 1.4-1-.12-2-.34-2.95-.53a.49.49 0 0 1-.24-.69 1.76 1.76 0 0 1 .27-.33 23.89 23.89 0 0 1 4.77-3.31 18.12 18.12 0 0 1-.25 3.46Zm7.54 6.58a2.71 2.71 0 0 1-.95.43 13.09 13.09 0 0 1-3.33.37h-.47c-1.57-.07-1.62-.12-1.57-1.75.06-2.24-.11-2.33 2.24-1.66 1 .29 2 .61 3 1a2.16 2.16 0 0 1 1.17.88c.17.26.19.55-.09.73Z" class="color030202 svgShape"></path><path d="M381.26 205.78a5.78 5.78 0 0 0-1.66-2.44c-1.35-1.06-2.31-.92-3.58.53-.11.16-.21.31-.3.47a.29.29 0 0 0-.13.37 1.32 1.32 0 0 0-.35 1.36 3.11 3.11 0 0 0 0 1.71 2.05 2.05 0 0 0 .36 1.82 3.62 3.62 0 0 0 .88 2.13 2.85 2.85 0 0 0 2.83 1.54c1.26-.22 1.86-1.22 2.32-2.3a4 4 0 0 0 .15-.62 7.12 7.12 0 0 0-.52-4.57Zm-5.62.29Zm2.67 3a.74.74 0 0 1-1.23.19 4.91 4.91 0 0 1-1.05-2.29.64.64 0 0 1 0-.86l.08-.74c.08-.18.17-.36.26-.53a1.16 1.16 0 0 1 .92-.45 1 1 0 0 1 .81.61 4.27 4.27 0 0 1 .21 4Zm2.6 1.3a.54.54 0 0 1-.88.11 1.86 1.86 0 0 1-.48-1.14 1 1 0 0 1 .5-1.06c.32-.15.69.14.88.68a3.84 3.84 0 0 1 .14.4 4.77 4.77 0 0 1 .05.48c-.06.09-.12.29-.21.48Z" fill="#000000" class="color000 svgShape"></path><path fill="#010101" d="M409.8 121.5c5 0 10-.3 15-.75 5.2-.46 10.4-.89 15.59-1.46s10.36-1.29 15.53-1.94c6.32-.79 12.58-1.91 18.82-3.13a106 106 0 0 0 16.13-4.22 33.2 33.2 0 0 0 6.35-3.07 17.29 17.29 0 0 0 3.17-2.55 5 5 0 0 0 0-7.29 18.67 18.67 0 0 0-5.36-3.88 44.85 44.85 0 0 0-8-3c-6.12-1.72-12.25-3.38-18.36-5.13a79.26 79.26 0 0 1-11.87-4.28c-1.42-.67-2.8-1.42-4.17-2.19a13.48 13.48 0 0 1-2.89-2.22 6.32 6.32 0 0 1-1.46-2.09 1 1 0 0 1 .15-1.2c.23-.22.8 0 1.07.41a13.18 13.18 0 0 0 5.36 4.49 62.31 62.31 0 0 0 12.33 4.88c5.06 1.5 10.17 2.86 15.26 4.29 3.29.93 6.61 1.79 9.81 3a29.06 29.06 0 0 1 7.85 4.32 10.83 10.83 0 0 1 2.33 2.5 6.27 6.27 0 0 1 .08 7.25 9.4 9.4 0 0 1-2.32 2.51 33 33 0 0 1-8 4.45 85.09 85.09 0 0 1-12.98 3.8c-7.69 1.66-15.43 3-23.23 4-7.51 1-15 1.87-22.57 2.63a231.63 231.63 0 0 1-28.48 1.49 93.9 93.9 0 0 1-14.1-1.18 23.58 23.58 0 0 1-4.74-1.29 14.19 14.19 0 0 1-4.17-2.58c-2.43-2.12-3-4.78-2.23-7.78a11.41 11.41 0 0 1 1.72-3.67 47.57 47.57 0 0 1 7.42-8.29 143.43 143.43 0 0 1 13-10.18c3-2.12 6-4.14 9-6.25a19.43 19.43 0 0 0 4.33-3.81 2.55 2.55 0 0 1 .87-.6c.24-.11.39.09.43.31a1.84 1.84 0 0 1-.34 1.41 10.11 10.11 0 0 1-2.13 2.16 69.41 69.41 0 0 1-6.2 4.59 173.8 173.8 0 0 0-17.3 13 47.53 47.53 0 0 0-6 6.13 19.61 19.61 0 0 0-3.08 5.12 5.57 5.57 0 0 0 1 6 9.92 9.92 0 0 0 3.8 2.72 23.35 23.35 0 0 0 6.41 1.64 103.16 103.16 0 0 0 13.26.91Z" class="color010101 svgShape"></path><path fill="#030404" d="M420.12 56.72c.08-.38.21-1.08.37-1.78s.36-1.38.5-2.08a.79.79 0 0 0-.71-.89 5.82 5.82 0 0 0-1.9.22 28.38 28.38 0 0 0-5.59 2.13c-2.05 1-4.05 2.12-6.08 3.17a2.62 2.62 0 0 1-1.59.55.5.5 0 0 1-.35-.18.41.41 0 0 1 0-.39 4.92 4.92 0 0 1 1-1.08 41.71 41.71 0 0 1 12.78-5.88 6.92 6.92 0 0 1 1.69-.21 2.26 2.26 0 0 1 2.4 2.81c-.08.71-.28 1.4-.43 2.1s-.28 1.25-.36 1.89.3 1.08 1 .88a12.26 12.26 0 0 0 2-.72c1.5-.68 3-1.4 4.46-2.09a97.37 97.37 0 0 1 13.86-5.07 3.08 3.08 0 0 1 1.67-.22.7.7 0 0 1 .53.59.62.62 0 0 1-.27.53 21.51 21.51 0 0 1-2.18.87c-2.43.83-4.88 1.58-7.3 2.44a90.86 90.86 0 0 0-8.83 3.83c-.71.35-1.41.7-2.14 1a7.17 7.17 0 0 1-1.63.51c-1.7.27-3.02-.49-2.9-2.93ZM270.89 409.78a1.81 1.81 0 0 1-.11.47c-.16.31-.35.62-.54.92-4.55 7-8.81 14.2-13.67 21-2.81 4-5.47 8-8.2 12.05-.08.12-.14.25-.23.36-.3.41-.84.63-1.09.41a1 1 0 0 1-.24-1.18 18.35 18.35 0 0 1 2.22-3.9c4.29-6.15 8.68-12.24 12.7-18.58 2.33-3.68 4.74-7.31 7.13-11a6.54 6.54 0 0 1 .95-1.14.57.57 0 0 1 .78 0 1.7 1.7 0 0 1 .3.59Z" class="color040303 svgShape"></path><path fill="#030303" d="M274.27 440.51c.51-4.91.65-9.85 1.27-14.74.47-3.68 1-7.36 1.53-11 .11-.77.16-1.56.28-2.34a6.5 6.5 0 0 1 .34-1.22.66.66 0 0 1 .72-.35.63.63 0 0 1 .56.56 5.36 5.36 0 0 1 0 1.06c-.3 2.7-.55 5.41-.94 8.09-.52 3.61-.88 7.23-1.15 10.87-.39 5.34-.72 10.69-.82 16.05a4.84 4.84 0 0 1-.16 1.26.77.77 0 0 1-.87.47.69.69 0 0 1-.61-.53 12.2 12.2 0 0 1-.14-1.71c-.02-2.18-.01-4.32-.01-6.47Z" class="color030303 svgShape"></path><path fill="#030404" d="M286.66 410.36a1.14 1.14 0 0 1 .86.45c.86.95 1.76 1.87 2.58 2.86 2.25 2.77 4.44 5.6 6.42 8.56 3.78 5.64 7.59 11.24 11.7 16.64.64.83.7 1.38.24 1.66s-.88.14-1.46-.52-1.27-1.55-1.87-2.35q-4.33-5.85-8.34-11.93a131.33 131.33 0 0 0-9.72-13 13.39 13.39 0 0 1-1-1.36c-.24-.37.14-1 .59-1.01Z" class="color040303 svgShape"></path><path fill="#040404" d="M260.45 247.79a.87.87 0 0 1 .72.45q1 1.51 1.95 3.06c3.67 6.12 7.49 12.14 11.62 18 1.44 2 2.93 4.05 4.39 6.07a7.57 7.57 0 0 1 .76 1.28.6.6 0 0 1-.25.75.65.65 0 0 1-.79 0 7 7 0 0 1-.86-.94 183.61 183.61 0 0 1-11.9-17c-1.94-3.07-3.83-6.18-5.73-9.27a9.25 9.25 0 0 1-.68-1.33c-.15-.4.21-.98.77-1.07ZM287.67 273.23v1a.57.57 0 0 1-.52.57.69.69 0 0 1-.83-.48 7.4 7.4 0 0 1-.26-1c-.5-3.68-1-7.35-1.46-11-.66-5.45-1.25-10.91-1.88-16.37 0-.35-.12-.7-.13-1.06a.89.89 0 0 1 .75-.89.76.76 0 0 1 .8.57 8 8 0 0 1 .38 1.66c.62 5.46 1.21 10.92 1.84 16.38.33 2.9.7 5.8 1.06 8.7.07.63.17 1.34.25 1.92Z" class="color040404 svgShape"></path><path fill="#050505" d="M293.14 278.35a1.48 1.48 0 0 1-.49-.27.71.71 0 0 1-.12-.57 3.64 3.64 0 0 1 .57-.89c2.39-2.76 4.46-5.76 6.62-8.69q4.57-6.21 9.21-12.36a5 5 0 0 1 .87-.91.68.68 0 0 1 .81 0 .78.78 0 0 1 .31.75 2.37 2.37 0 0 1-.58 1.12q-4 5.43-8 10.85c-.89 1.2-1.79 2.4-2.68 3.61a83.671 83.671 0 0 1-5.23 6.51c-.36.39-.66.82-1.29.85Z" class="color050505 svgShape"></path><path fill="#080909" d="M405 58.44a3 3 0 0 1 .54.35c1.1 1 2.21 2 3.27 3.09a70 70 0 0 1 6.26 7.06 29.1 29.1 0 0 0 3.73 4.42 1.42 1.42 0 0 1 .25.34.65.65 0 0 1 0 .79.7.7 0 0 1-.77.22 2.37 2.37 0 0 1-1.24-.82c-.66-.74-1.33-1.49-1.93-2.29a88 88 0 0 0-6.36-7.54c-1.19-1.23-2.41-2.44-3.6-3.67a3.09 3.09 0 0 1-.86-1.22.69.69 0 0 1 .71-.73Z" class="color090808 svgShape"></path><path fill="#070707" d="m446.56 53.12-.72 4.24c-.49 3-.8 6.08-1 9.14a17.7 17.7 0 0 0 0 3.85.63.63 0 0 1-.6.74.73.73 0 0 1-.81-.56 9.44 9.44 0 0 1-.18-1.91 73.2 73.2 0 0 1 .8-10.45c.21-1.48.47-3 .74-4.43a7.83 7.83 0 0 1 .42-1.43.66.66 0 0 1 .72-.34.6.6 0 0 1 .57.53c.04.21.04.42.06.62Z" class="color070707 svgShape"></path><path fill="#050809" d="M424.22 76.14c-.5 0-1 .13-1.47-.17a.75.75 0 0 1-.31-.49.81.81 0 0 1 .27-.54 1.2 1.2 0 0 1 .58-.22 147.25 147.25 0 0 0 14.87-3 3.53 3.53 0 0 1 .84-.15.7.7 0 0 1 .76.6.66.66 0 0 1-.31.74 5.32 5.32 0 0 1-1.39.53c-2.43.58-4.86 1.15-7.3 1.68-1.53.34-3.08.61-4.63.88-.63.07-1.27.09-1.91.14Z" class="color090505 svgShape"></path><path fill="#04a3f3" d="M343.4 345.7c-.46.33-.85.63-1.25.91a4.27 4.27 0 0 0-1.77 3.51 8.47 8.47 0 0 0 1.45 5.06 18.72 18.72 0 0 0 5.68 5.46c2.29 1.47 4.52 3 6.73 4.59A56.11 56.11 0 0 1 362 372c1.28 1.34 2.59 2.66 3.91 4a30.06 30.06 0 0 0 12.88 7.82c1.89.56 2.44.51 1.05 2.68a2.85 2.85 0 0 0 .14 3.41 9.35 9.35 0 0 0 1.47 1.55c2.42 2.12 4.88 4.19 7.3 6.31a9.59 9.59 0 0 1 2.1 2.12c.48.8-.1 1.81-.11 2.74a19.22 19.22 0 0 1-.14 2.14c-.11.95-.35 1.18-1.35 1.36a30.72 30.72 0 0 1-4.69.41c-4.15.08-8.3.2-12.45.27-1.64 0-3.29 0-4.93-.07-4.22-.17-8.43-.36-12.65-.54a19.25 19.25 0 0 0-4.91.33 10 10 0 0 0-2.83 1 3.64 3.64 0 0 0-2.08 3.88 7.93 7.93 0 0 0 .33 1.46c.65 2.19 1.34 4.37 2 6.57a36.24 36.24 0 0 1 1 4 9.85 9.85 0 0 1-2.32 8.19 14.69 14.69 0 0 1-5.95 4.1 20.56 20.56 0 0 1-15.08.36 13.09 13.09 0 0 1-5.74-4 19.09 19.09 0 0 1-3.68-6.5 9.75 9.75 0 0 1 2.28-9.94c.57-.64 1.25-1.18 1.87-1.78a7 7 0 0 0 1.7-2.45 4.58 4.58 0 0 0-1.38-5.23 10.32 10.32 0 0 0-3.64-1.75 94.49 94.49 0 0 0-10.52-2.08c-3.11-.44-6.23-.86-9.36-1.18-3.77-.39-7.55-.64-11.35-.69-1 0-2-.13-3-.23a.62.62 0 0 1-.57-.75c.16-1.42.34-2.84.5-4.26.24-2.28.46-4.55.7-6.83.54-5.12 1.12-10.23 1.62-15.36.28-2.91.53-5.83.95-8.74a5.66 5.66 0 0 1 .9-2.38 2.59 2.59 0 0 1 2.76-1.21 14.78 14.78 0 0 1 1.45.39c1.85.54 3.69 1.12 5.55 1.63a20.35 20.35 0 0 0 9.78.08 14 14 0 0 0 5.95-2.83 25.8 25.8 0 0 0 5.88-6.49 14.65 14.65 0 0 0 2.24-7.73 10.65 10.65 0 0 0-2.29-7c-3.34-4.14-7.34-7.41-12.64-8.76a22.8 22.8 0 0 0-3.59-.6c-1.7-.14-3.43-.15-5.14-.21a18.46 18.46 0 0 0-4.67.6c-1.59.36-2.21 0-2.69-1.61a10.19 10.19 0 0 1-.43-2.75c0-2.5 0-5 .2-7.5.24-3.28.49-6.57.62-9.85.21-5 .56-10 .42-15 0-.83.14-1 1-1 1.29 0 2.59 0 3.87.08a75.78 75.78 0 0 0 9.65.1c6.22-.24 12.44-.26 18.67-.16 1.71 0 3.43-.06 5.14-.09a7.21 7.21 0 0 0 2.52-.51 2.41 2.41 0 0 0 1.7-2.47 12.39 12.39 0 0 0-.26-1.9 45.73 45.73 0 0 1-1-7.64 11.67 11.67 0 0 1 1.75-6.53 24.79 24.79 0 0 1 5.06-6.07 18.38 18.38 0 0 1 6.54-3.59 12 12 0 0 1 9.54 1c6 3.21 8.13 8.52 7.92 15a17.43 17.43 0 0 1-3 9.48 10.87 10.87 0 0 0-.78 1.52 2.63 2.63 0 0 0 1.27 3.45 9.59 9.59 0 0 0 2.86.88c1.7.27 3.39.55 5.09.78 6.66.9 13.32 1.78 20 2.7 1.42.2 2.81.54 4.23.74a1.49 1.49 0 0 1 1.31 1.22 13.87 13.87 0 0 1 .5 2.3 61 61 0 0 1 .5 6.63v11.59c-.06 4.29-.37 8.57-.85 12.84a6.61 6.61 0 0 1-.92 3.05c-.43.66-.88.68-1.27 0-.7-1.17-1.36-2.35-2.07-3.51a18.8 18.8 0 0 0-3.84-4.59 7.34 7.34 0 0 0-3.18-1.7 3.74 3.74 0 0 0-4.43 2.13 19.84 19.84 0 0 0-.69 2h-.39c-2.89-2.17-6.34-2.92-9.72-3.83a32.19 32.19 0 0 0-10.84-1 8.87 8.87 0 0 0-3.71.95 2.49 2.49 0 0 0-1.29 3.57c.15.39.55.66.55 1.14-.33.45-.89.41-1.33.6-2.25 1-2.95 2-2.8 4.48a1.14 1.14 0 0 1-.87 1.4 5 5 0 0 0-3.14 3.29 3.82 3.82 0 0 0 .28 3.3Z" class="colorf38704 svgShape"></path><path fill="#04a3f3" d="M210.44 338.93c.33-.56.67-1.1 1-1.67a6.28 6.28 0 0 0 .13-5.39c-.32-.81-.73-1.17-2.3-2.27a5.78 5.78 0 0 0 .84-4 4.3 4.3 0 0 0-2.72-3.33 14.59 14.59 0 0 0-1.43-.42c-.48-.14-.72-.42-.54-.95a3.34 3.34 0 0 0 0-2.31 2.36 2.36 0 0 0-2.2-1.75 9.23 9.23 0 0 0-2.35.11 120.14 120.14 0 0 0-15.12 4 17 17 0 0 0-7.75 5.5 100.84 100.84 0 0 0-7.08 10c-2.84 4.47-5.72 8.91-8.54 13.38a1.88 1.88 0 0 1-1.92 1c-.64-.05-1.28 0-1.93 0a9.87 9.87 0 0 1-8-4 16 16 0 0 1-3.11-15.12 12 12 0 0 1 6.38-7.44 17.6 17.6 0 0 1 8.27-2 28.62 28.62 0 0 1 9.67 1.62 4 4 0 0 0 4.35-.91 6.2 6.2 0 0 0 1.64-2.48 13.57 13.57 0 0 0 .83-4.41c.14-4.5.08-9-.1-13.51-.16-4.22-.36-8.44-.54-12.65a4.68 4.68 0 0 1 0-.65.75.75 0 0 1 .65-.73c1.13-.15 2.27-.33 3.4-.43 2-.17 4-.28 6-.42 4.06-.28 8.13-.59 12.2-.83 3.64-.22 7.29-.16 10.94-.07a6.9 6.9 0 0 1 6.36 8.92 50 50 0 0 1-1.76 4.84 17 17 0 0 0-1.12 8.62 13.51 13.51 0 0 0 1.32 4.5 18 18 0 0 0 13 10 25.67 25.67 0 0 0 11.69-.28c6.13-1.59 9.88-5.47 11.39-11.56a27.08 27.08 0 0 0 .26-10c-.26-2.05-.79-4.06-1.22-6.09a6.48 6.48 0 0 1-.21-1.91 2.19 2.19 0 0 1 2.36-2.24c1.79 0 3.59.1 5.36-.06 4.43-.4 8.86-.48 13.29-.45 4.22 0 8.44 0 12.65.42 3.72.34 3.29.38 3.23 3.53-.1 5.72-.32 11.44-.56 17.16-.12 3.07-.37 6.14-.58 9.2a27.37 27.37 0 0 0 .18 6 7.9 7.9 0 0 0 .86 2.63 2.63 2.63 0 0 0 2.43 1.48 6.87 6.87 0 0 0 2.11-.31 15.17 15.17 0 0 1 5.53-.47c1.64.13 3.3.16 4.92.42a18.15 18.15 0 0 1 8 3.39 37.61 37.61 0 0 1 4.16 3.71 10.54 10.54 0 0 1 2.77 10.85 11.48 11.48 0 0 1-1.66 3.71 28.66 28.66 0 0 1-4.8 5.46 15.57 15.57 0 0 1-8 3.38c-4 .6-7.65-.55-11.35-1.63-1-.28-1.91-.61-2.88-.82a3.89 3.89 0 0 0-4 1.5 6.86 6.86 0 0 0-1.48 3.74c-.33 2.91-.62 5.83-.93 8.74-.33 3.2-.68 6.4-1 9.6-.38 3.7-.74 7.4-1.13 11.1-.18 1.77-.38 3.55-.64 5.32-.18 1.18-.36 1.28-1.56 1.2-4.07-.24-8.14-.58-12.21-.69-3.65-.1-7.29-.22-10.93-.44a41.81 41.81 0 0 1-8.26-1.22 14.54 14.54 0 0 1-3.37-1.37 7.74 7.74 0 0 1-2.16-1.75 4.3 4.3 0 0 1-.19-5.7 24.94 24.94 0 0 1 2.06-2.18 13.2 13.2 0 0 0 3.47-6.31 10.55 10.55 0 0 0-.27-6.12 16.73 16.73 0 0 0-8.95-10.17 25.72 25.72 0 0 0-9.09-2.31 12.37 12.37 0 0 0-5.82 1.25 16.44 16.44 0 0 0-4.52 2.85c-4.54 4.11-5.86 9.15-4.2 15 .53 1.85 1.26 3.64 1.92 5.46a10.42 10.42 0 0 1 .68 2.69c.18 2-.49 2.9-2.48 3.28a21.24 21.24 0 0 1-4.06.24c-3.15 0-6.3-.1-9.45 0-4.64.22-9.29.25-13.94.33a85.8 85.8 0 0 1-8.78-.5c-1.36-.12-1.53-.3-1.52-1.77 0-2.14 0-4.29.16-6.43.2-4 .49-8 .69-12a3.33 3.33 0 0 1 1.07-2.45 57.2 57.2 0 0 1 8.44-6.93c2.46-1.61 4.89-3.24 7.28-4.93a79.22 79.22 0 0 1 7.84-4.86c2.64-1.43 5.31-2.79 8-4.22a19.74 19.74 0 0 0 2.35-1.48 6.72 6.72 0 0 0 2.55-4.1 3 3 0 0 0-1.55-3.63 22.72 22.72 0 0 0-2.42-1.01Z" class="colorf38704 svgShape"></path><path fill="#07090a" d="M396.87 248.82a3.74 3.74 0 0 1-2.46-.84.75.75 0 0 1-.24-.77 1 1 0 0 1 .78-.66.76.76 0 0 1 .42 0c1.94.8 3.8.1 5.66-.35a4.76 4.76 0 0 0 2-1.22c.89-.79 1.3-1.57.94-1.71-.68-.24-1.15.33-1.69.59a9.36 9.36 0 0 1-1 .46.69.69 0 0 1-.8-1 5.7 5.7 0 0 1 3.67-2 1.87 1.87 0 0 1 1.77 2.21 4 4 0 0 1-.88 1.93 8 8 0 0 1-3.44 2.48 22.19 22.19 0 0 1-4.73.88ZM378.61 190.55a9.89 9.89 0 0 1 4.52 1.08 5.24 5.24 0 0 1 1.05.71.78.78 0 0 1 .19 1 .78.78 0 0 1-.89.42 11.71 11.71 0 0 1-1.37-.58c-3.39-1.38-6.53-1.1-9.32 1.44a4.21 4.21 0 0 1-.65.55.74.74 0 0 1-1-.11.76.76 0 0 1-.19-1 3.79 3.79 0 0 1 .79-1 9.54 9.54 0 0 1 6.87-2.51Z" class="color0a0707 svgShape"></path><path fill="#141617" d="M430.71 201.92a4.85 4.85 0 0 1-.48 2.25.52.52 0 0 1-.52.28c-.39 0-.46-.3-.42-.58s.15-.83.24-1.25a2.42 2.42 0 0 0-.85-2.84.8.8 0 0 1-.28-.32.62.62 0 0 1 .11-.77.44.44 0 0 1 .57 0 3.17 3.17 0 0 1 1.63 3.23Z" class="color171414 svgShape"></path><path fill="#050607" d="M143.67 241.19a9.05 9.05 0 0 1 2.58.43 40.13 40.13 0 0 1 5.26 2.38 1.77 1.77 0 0 1 .5.39c.19.21.37.46.17.76s-.4.44-.71.33-.78-.35-1.17-.52c-1.3-.58-2.59-1.17-3.91-1.71a7.66 7.66 0 0 0-2.71-.59c-1.4-.06-1.55.22-1.65 1.72a2.24 2.24 0 0 0 1.19 2.29c1.17.69 2.35 1.35 3.54 2a5 5 0 0 0 2.24.64c.72 0 1.44 0 1.82-.81a.63.63 0 0 1 .91-.29.93.93 0 0 1 .38 1.12 1.78 1.78 0 0 1-1.53 1.32 6.11 6.11 0 0 1-3.39-.15 22.23 22.23 0 0 1-5.4-3 3 3 0 0 1-1.34-2.74v-1.5a1.74 1.74 0 0 1 1.22-1.8 5.65 5.65 0 0 1 2-.27Z" class="color070505 svgShape"></path><path fill="#060809" d="M164 199.64a13 13 0 0 1 6.15 1.41 1.7 1.7 0 0 1 .33.27.7.7 0 0 1 .23.76.74.74 0 0 1-.83.54 6 6 0 0 1-1.19-.42 9.8 9.8 0 0 0-3.5-.87 9.39 9.39 0 0 0-7.28 3c-.6.6-1.12 1.29-1.69 1.93a3.72 3.72 0 0 1-.59.6.69.69 0 0 1-.8 0 .67.67 0 0 1-.32-.73 1.14 1.14 0 0 1 .12-.41c2.45-3.67 5.73-5.9 9.37-6.08Z" class="color090606 svgShape"></path></svg></g></svg>