<svg id="SvgjsSvg1353" width="360" height="360" xmlns="http://www.w3.org/2000/svg" version="1.1" xmlns:xlink="http://www.w3.org/1999/xlink" xmlns:svgjs="http://svgjs.com/svgjs"><defs id="SvgjsDefs1354"></defs><g id="SvgjsG1355"><svg xmlns="http://www.w3.org/2000/svg" fill="none" viewBox="0 0 3000 3000" width="360" height="360"><path fill="#e7f7ff" d="M362.43 2012.1C362.43 2133.98 442.56 2251.65 514.052 2328.83C556.728 2374.91 618.669 2395.34 681.398 2395.34H1912.82C2157.84 2395.34 2541 2010.37 2545.33 1764.87C2545.87 1734.07 2544.75 1701.79 2541.39 1667.84C2506.7 1317.08 2270.76 1209.9 2024.41 1076.75C1778.06 943.588 1937.67 748.722 1514.37 631.803C1091.06 514.883 643.474 901.367 657.353 1261.87C671.232 1622.37 362.43 1674.34 362.43 2012.1Z" class="colorE7E8FF svgShape"></path><path fill="#e7f7ff" d="M2204.25 1072.85C2061.2 1024.11 1970.6 885.292 1943.18 821.975C1893.11 678.616 2039.74 753.879 2143.46 882.903C2247.17 1011.93 2383.07 1133.78 2204.25 1072.85Z" class="colorE7E8FF svgShape"></path><path fill="#ffffff" d="M1984.33 2388.23H1635.24C1538.07 2352.39 1408.5 2309.38 1440.89 2226.95C1473.28 2144.52 1635.24 2255.62 1678.42 2176.78C1721.61 2097.93 1372.52 2087.18 1408.5 1986.83C1444.49 1886.48 1664.03 2015.5 1635.24 1918.73C1606.44 1821.97 1361.72 1857.81 1372.52 1757.46C1383.31 1657.11 1566.86 1821.97 1588.45 1707.28C1610.04 1592.6 1412.1 1388.31 1566.86 1352.47C1721.61 1316.63 1678.42 1689.36 1732.41 1707.28C1786.39 1725.2 1836.77 1531.67 1912.35 1617.68C1987.93 1703.7 1858.37 1897.23 1912.35 1986.83C1966.34 2076.43 2041.91 1743.12 2128.29 1897.23C2197.39 2020.52 2061.11 2275.93 1984.33 2388.23Z" class="colorfff svgShape"></path><path fill="#ffffff" d="M2000.19 1304.08L1890.15 864.796C1886.12 848.718 1869.63 838.999 1853.31 843.086L1553.09 918.287C1545.26 920.25 1538.51 925.2 1534.34 932.047L1489.38 1005.81C1485.21 1012.65 1483.95 1020.84 1485.88 1028.56L1581.19 1409.03C1585.21 1425.11 1601.71 1434.83 1618.02 1430.74L1977.93 1340.59C1994.25 1336.5 2004.21 1320.16 2000.19 1304.08Z" class="colorfff svgShape"></path><path fill="#034668" fill-rule="evenodd" d="M1529.13 928.977C1534.13 920.76 1542.23 914.821 1551.63 912.465L1851.85 837.264C1871.44 832.359 1891.23 844.023 1896.06 863.315L2006.09 1302.6C2010.93 1321.89 1998.97 1341.51 1979.39 1346.41L1619.48 1436.56C1599.9 1441.47 1580.11 1429.81 1575.28 1410.51L1479.97 1030.04C1477.65 1020.77 1479.16 1010.95 1484.17 1002.74L1529.13 928.977ZM1554.55 924.109C1548.28 925.68 1542.88 929.639 1539.55 935.117L1494.59 1008.88C1491.25 1014.35 1490.24 1020.9 1491.79 1027.08L1587.09 1407.55C1590.32 1420.41 1603.51 1428.19 1616.57 1424.92L1976.47 1334.77C1989.53 1331.5 1997.5 1318.42 1994.28 1305.56L1884.24 866.276C1881.02 853.414 1867.82 845.638 1854.77 848.908L1554.55 924.109Z" clip-rule="evenodd" class="color032068 svgShape"></path><path fill="#034668" d="M1484.65 1016.05L1542.65 920.904L1557.27 979.298C1559.69 988.945 1553.71 998.753 1543.92 1001.21L1484.65 1016.05Z" class="color032068 svgShape"></path><path fill="#e7f7ff" fill-rule="evenodd" d="M1670.47 998.191L1577.36 1021.51L1574.45 1009.87L1667.56 986.547L1670.47 998.191ZM1834.93 1046.99L1598.58 1106.2L1595.66 1094.55L1832.02 1035.35L1834.93 1046.99ZM1853.05 1119.32L1616.69 1178.53L1613.78 1166.88L1850.14 1107.68L1853.05 1119.32ZM1871.61 1193.42L1635.25 1252.62L1632.34 1240.98L1868.7 1181.78L1871.61 1193.42ZM1845.87 1272.99L1652.49 1321.43L1649.57 1309.78L1842.96 1261.34L1845.87 1272.99Z" clip-rule="evenodd" class="colorE7E8FF svgShape"></path><path fill="#ffffff" d="M674.143 724.777C674.143 708.191 687.456 694.746 703.879 694.746H1308.04C1324.46 694.746 1337.78 708.191 1337.78 724.777V994.022C1337.78 1010.61 1324.46 1024.05 1308.04 1024.05H703.879C687.456 1024.05 674.143 1010.61 674.143 994.022V724.777Z" class="colorfff svgShape"></path><path fill="#034668" fill-rule="evenodd" d="M668.196 724.777C668.196 704.874 684.171 688.739 703.878 688.739H1308.04C1327.75 688.739 1343.73 704.874 1343.73 724.777V994.022C1343.73 1013.92 1327.75 1030.06 1308.04 1030.06H703.878C684.172 1030.06 668.196 1013.92 668.196 994.022V724.777ZM703.878 700.752C690.74 700.752 680.09 711.508 680.09 724.777V994.022C680.09 1007.29 690.74 1018.05 703.878 1018.05H1308.04C1321.18 1018.05 1331.83 1007.29 1331.83 994.022V724.777C1331.83 711.508 1321.18 700.752 1308.04 700.752H703.878Z" clip-rule="evenodd" class="color032068 svgShape"></path><path fill="#e7f7ff" d="M777.714 821.632C777.714 805.046 791.027 791.601 807.449 791.601H886.076C902.498 791.601 915.811 805.046 915.811 821.632V901.041C915.811 917.626 902.498 931.072 886.076 931.072H807.449C791.027 931.072 777.714 917.626 777.714 901.041V821.632Z" class="colorE7E8FF svgShape"></path><path fill="#034668" fill-rule="evenodd" d="M1230.37 820.853H1011.72V808.841H1230.37V820.853ZM1119.06 925.457H1011.72V913.444H1119.06V925.457Z" clip-rule="evenodd" class="color032068 svgShape"></path><path fill="#ffffff" d="M1009.74 2014.89C1040.4 2223.33 1199.12 2343.8 1281.54 2380.86C1284.18 2382.05 1286.98 2382.6 1289.88 2382.6H1313.1C1326.92 2382.6 1337.09 2369.65 1333.36 2356.35C1269.84 2130.28 1122.55 2026.58 1034.28 1994.22C1020.71 1989.24 1007.63 2000.59 1009.74 2014.89Z" class="colorfff svgShape"></path><path fill="#034668" fill-rule="evenodd" d="M1031.83 2000.9C1023.71 1997.92 1015.39 2004.48 1016.77 2013.85C1046.97 2219.13 1203.44 2337.94 1284.46 2374.38C1286.1 2375.12 1287.89 2375.49 1289.88 2375.49H1313.1C1322.39 2375.49 1328.92 2366.86 1326.51 2358.27C1263.66 2134.57 1118.13 2032.54 1031.83 2000.9ZM1002.7 2015.92C999.873 1996.7 1017.71 1980.57 1036.73 1987.54C1126.96 2020.63 1276.02 2125.98 1340.2 2354.43C1345.26 2372.44 1331.44 2389.71 1313.1 2389.71H1289.88C1286.06 2389.71 1282.26 2388.98 1278.62 2387.35C1194.81 2349.66 1033.84 2227.54 1002.7 2015.92Z" clip-rule="evenodd" class="color032068 svgShape"></path><path fill="#034668" fill-rule="evenodd" d="M1137.51 2134.86C1115.53 2112.27 1095.67 2094.16 1078.26 2078.68L1087.7 2068.06C1108.23 2086.3 1132.33 2108.34 1159.32 2137.11C1179.36 2158.48 1200.98 2183.54 1223.91 2213.5V2182.83H1238.13V2232.49C1257.72 2259.23 1278.18 2289.55 1299.36 2324.15C1309.41 2340.57 1319.63 2357.95 1329.99 2376.37L1317.6 2383.35C1307.9 2366.1 1298.34 2349.79 1288.92 2334.34L1243.26 2326.67L1245.61 2312.64L1278.98 2318.25C1260.44 2288.67 1242.51 2262.44 1225.29 2239.04C1198.73 2202.93 1173.85 2173.56 1151.04 2149.08H1104.87V2134.86H1137.51Z" clip-rule="evenodd" class="color032068 svgShape"></path><path fill="#034668" d="M1258.56 1652.94C1125.72 1933.55 1221.05 2241.27 1293.19 2374.59C1296.83 2381.32 1303.89 2385.33 1311.54 2385.33H1344.93C1356.14 2385.33 1365.46 2376.54 1366.14 2365.35C1387.9 2011.42 1333.91 1764.66 1293.1 1654.12C1287.12 1637.92 1265.95 1637.33 1258.56 1652.94Z" class="color032068 svgShape"></path><path fill="#ffffff" d="M1566.25 1812.88C1395.97 1927.89 1313.3 2208.86 1288.97 2361.4C1286.94 2374.12 1296.91 2385.33 1309.79 2385.33H1358.98C1364.5 2385.33 1369.81 2383.21 1373.72 2379.32C1529.12 2224.54 1584.25 1969.08 1595.41 1830.46C1596.71 1814.23 1579.75 1803.76 1566.25 1812.88Z" class="colorfff svgShape"></path><path fill="#034668" fill-rule="evenodd" d="M1588.32 1829.89C1589.18 1819.2 1578.47 1813.21 1570.23 1818.77L1566.25 1812.88L1570.23 1818.77C1486.73 1875.16 1424.18 1972.71 1379.4 2075.89C1334.69 2178.94 1308.08 2286.72 1295.99 2362.52C1294.68 2370.73 1301.09 2378.22 1309.79 2378.22H1358.98C1362.68 2378.22 1366.17 2376.8 1368.7 2374.28C1445.37 2297.93 1497.54 2196.46 1531.93 2096.52C1566.32 1996.62 1582.78 1898.69 1588.32 1829.89ZM1562.27 1806.98C1581.04 1794.31 1604.25 1809.25 1602.5 1831.03C1596.88 1900.85 1580.2 1999.97 1545.38 2101.15C1510.57 2202.28 1457.48 2305.94 1378.74 2384.36C1373.45 2389.62 1366.31 2392.44 1358.98 2392.44H1309.79C1292.73 2392.44 1279.2 2377.51 1281.95 2360.28C1294.19 2283.54 1321.08 2174.56 1366.36 2070.23C1411.57 1966.04 1475.49 1865.6 1562.27 1806.98Z" clip-rule="evenodd" class="color032068 svgShape"></path><path fill="#034668" d="M1709.35 2113.51C1540.46 2119.84 1413.01 2260.14 1354.69 2354.95C1346.32 2368.54 1356.46 2385.33 1372.43 2385.33H1431.5C1434.46 2385.33 1437.37 2384.73 1440.07 2383.51C1550.87 2333.09 1663.56 2217.47 1723.96 2144.63C1734.68 2131.71 1726.12 2112.88 1709.35 2113.51Z" class="color032068 svgShape"></path><path fill="#ffffff" fill-rule="evenodd" d="M1281.64 1698.7C1279.77 1755.43 1279.48 1810.22 1280.4 1862.53C1281.11 1903.03 1282.56 1942.04 1284.55 1979.3L1315.01 1930.07L1327.11 1937.55L1285.97 2004.04C1288.85 2051.06 1292.58 2095.09 1296.8 2135.57C1301.8 2183.61 1307.48 2226.66 1313.21 2263.79L1339.6 2220.2L1351.77 2227.56L1316.68 2285.52C1323.68 2327.92 1330.55 2361.16 1336.17 2383.61L1322.37 2387.06C1316.52 2363.67 1309.41 2329.13 1302.22 2285.23C1295.54 2244.43 1288.79 2195.49 1282.95 2139.84L1231.56 2095.16L1240.89 2084.42L1280.85 2119.17C1277.29 2082.84 1274.13 2043.88 1271.64 2002.65C1269 1959.12 1267.1 1913.06 1266.22 1864.9L1230.34 1811.91L1242.11 1803.94L1265.85 1838.98C1265.38 1793.7 1265.83 1746.67 1267.43 1698.23L1281.64 1698.7Z" clip-rule="evenodd" class="colorfff svgShape"></path><path fill="#034668" fill-rule="evenodd" d="M1476.36 2034.92C1503.2 1974.87 1530.87 1918.57 1557.04 1874.5L1544.81 1867.24C1516.1 1915.6 1485.79 1978.12 1456.85 2043.84C1441.1 2079.61 1425.74 2116.37 1411.23 2152.37L1399.18 2091.15L1385.23 2093.9L1401.52 2176.68C1386.51 2214.56 1372.59 2251.16 1360.34 2284.36C1346.11 2322.92 1334.12 2356.92 1325.27 2383.05L1338.74 2387.61C1347.36 2362.15 1359 2329.14 1372.81 2291.66L1445.07 2249.16L1437.86 2236.9L1380.64 2270.56C1391.3 2242.03 1403.03 2211.44 1415.51 2179.98C1432.14 2138.04 1450.1 2094.58 1468.59 2052.47L1534 2030.86L1529.54 2017.36L1476.36 2034.92Z" clip-rule="evenodd" class="color032068 svgShape"></path><path fill="#ffffff" fill-rule="evenodd" d="M1685.11 2153.78C1646.08 2170.69 1606.43 2193.8 1568.6 2219.43C1544.76 2235.58 1521.69 2252.7 1499.99 2269.86H1537.24V2284.08H1482.31C1432.02 2325.25 1390.82 2365.02 1367.3 2390.19L1356.91 2380.48C1381.19 2354.5 1423.63 2313.59 1475.28 2271.46C1501.21 2250.32 1529.49 2228.84 1558.99 2208.77L1580.05 2163.42L1592.95 2169.41L1581.61 2193.83C1613.56 2173.36 1646.63 2154.96 1679.45 2140.73L1685.11 2153.78Z" clip-rule="evenodd" class="colorfff svgShape"></path><path fill="#e7f7ff" d="M513.885 874.02L486.908 910.198C485.266 912.399 482.589 913.459 479.968 912.944L446.624 906.402C439.451 904.995 435.123 914.435 440.659 919.414L466.865 942.982C468.778 944.703 469.682 947.353 469.242 949.953L462.668 988.814C461.432 996.12 470.022 1000.64 474.886 995.246L501.804 965.382C503.385 963.628 505.676 962.781 507.958 963.106L539.112 967.549C546.129 968.549 550.104 959.391 544.767 954.515L521.599 933.345C519.739 931.645 518.85 929.059 519.249 926.508L526.554 879.827C527.749 872.192 518.433 867.922 513.885 874.02zM2351.88 942.434L2349.06 962.728C2348.88 963.963 2348.03 965.024 2346.84 965.477L2331.7 971.248C2328.44 972.489 2328.81 977.115 2332.21 977.624L2348.3 980.031C2349.47 980.207 2350.44 980.982 2350.85 982.071L2356.99 998.337C2358.15 1001.39 2362.69 1000.98 2363.46 997.742L2367.7 979.841C2367.95 978.79 2368.69 977.905 2369.7 977.464L2383.47 971.444C2386.57 970.087 2386.12 965.655 2382.82 965.136L2368.52 962.882C2367.38 962.701 2366.42 961.946 2366.01 960.886L2358.39 941.493C2357.15 938.321 2352.36 939.013 2351.88 942.434z" class="colorE7E8FF svgShape"></path><path fill="#ffffff" d="M544.029 1521.92L530.028 1595.28L544.029 1672.13C580.198 1676.79 653.937 1686.1 659.537 1686.1C665.138 1686.1 706.208 1651.17 726.043 1633.7L705.041 1521.92C763.846 1502.36 783.214 1415.96 785.547 1375.2C799.548 1207.53 687.54 1186.57 666.538 1186.57C645.536 1186.57 512.526 1186.57 495.025 1326.3C481.024 1438.08 521.86 1503.29 544.029 1521.92Z" class="colorfff svgShape"></path><path fill="#034668" fill-rule="evenodd" d="M582.23 1210.03C545.987 1226.66 510.018 1259.78 501.584 1327.12C487.806 1437.12 528.142 1499.94 548.286 1516.87L551.246 1519.36L536.751 1595.31L549.667 1666.2C567.582 1668.5 592.42 1671.65 614.055 1674.32C625.877 1675.77 636.728 1677.08 644.966 1678.02C649.087 1678.49 652.534 1678.87 655.112 1679.13C656.403 1679.26 657.453 1679.36 658.249 1679.42C658.444 1679.44 658.618 1679.45 658.774 1679.46C659.04 1679.33 659.397 1679.14 659.856 1678.87C661.291 1678.03 663.238 1676.74 665.645 1675.01C670.432 1671.58 676.591 1666.77 683.281 1661.34C695.423 1651.48 709.053 1639.81 718.852 1631.23L697.481 1517.48L702.95 1515.66C729.709 1506.76 748.205 1482.36 760.393 1453.92C772.517 1425.62 777.815 1394.61 778.948 1374.83L778.953 1374.74L778.96 1374.66C785.825 1292.44 761.789 1247.45 734.722 1222.89C707.294 1198 675.738 1193.17 666.538 1193.17C656.174 1193.17 618.91 1193.2 582.23 1210.03ZM658.244 1679.69C658.245 1679.69 658.276 1679.68 658.335 1679.66C658.273 1679.69 658.244 1679.7 658.244 1679.69ZM666.48 1179.97H666.538C678.339 1179.97 713.289 1185.61 743.615 1213.13C774.292 1240.96 799.253 1290.26 792.141 1375.67C790.93 1396.64 785.375 1429.16 772.548 1459.1C760.504 1487.21 741.526 1514.22 712.562 1526.16L733.231 1636.17L730.416 1638.65C720.459 1647.42 705.161 1660.58 691.623 1671.57C684.866 1677.06 678.467 1682.07 673.359 1685.73C670.818 1687.55 668.483 1689.12 666.522 1690.26C665.548 1690.83 664.544 1691.37 663.575 1691.78C662.796 1692.11 661.283 1692.7 659.537 1692.7C657.648 1692.7 651.451 1692.04 643.459 1691.13C635.166 1690.18 624.271 1688.87 612.437 1687.41C588.765 1684.5 561.275 1681 543.182 1678.67L538.389 1678.05L523.304 1595.25L536.837 1524.34C512.408 1501.24 474.801 1434.57 488.465 1325.48C497.533 1253.09 536.819 1216.34 576.707 1198.04C616.088 1179.97 655.758 1179.97 666.48 1179.97Z" clip-rule="evenodd" class="color032068 svgShape"></path><path fill="#ffffff" d="M204.501 2388.24H754.043H1061.4C1229.41 2388.24 1194.41 2197.73 1155.91 2104.22C1120.9 1995.93 1051.57 1839.8 967.56 1707.06C900.355 1600.86 773.878 1576.64 722.541 1577.81C717.874 1598.77 698.039 1640.68 628.034 1640.68C558.028 1640.68 528.859 1598.77 519.525 1577.81C483.356 1577.81 383.015 1597.37 299.008 1675.62C194.073 1773.36 148.56 1996.69 106.581 2202.67L106.493 2203.1C72.8904 2367.98 157.83 2392.9 204.501 2388.24Z" class="colorfff svgShape"></path><path fill="#034668" fill-rule="evenodd" d="M727.663 1584.37C724.405 1595.4 717.619 1609.72 704.26 1621.96C688.587 1636.33 664.459 1647.28 628.034 1647.28C558.793 1647.28 527.172 1607.89 515.383 1584.48C477.468 1585.9 383.062 1606.35 303.518 1680.44C252.356 1728.1 215.159 1806.97 185.488 1900.54C155.871 1993.94 134.064 2100.91 113.058 2203.98L112.971 2204.41C96.3561 2285.94 109.457 2330.89 130.383 2354.92C151.354 2379 181.769 2383.88 203.843 2381.68L204.171 2381.64H1061.4C1102.1 2381.64 1129.6 2370.14 1147.83 2352.3C1166.17 2334.36 1175.93 2309.22 1179.54 2280.48C1186.77 2222.77 1168.84 2153 1149.79 2106.73L1149.7 2106.49L1149.62 2106.25C1114.78 1998.46 1045.67 1842.84 961.971 1710.58C929.276 1658.92 882.093 1627.07 836.572 1608.27C793.894 1590.64 753.013 1584.61 727.663 1584.37ZM841.628 1596.08C888.981 1615.64 938.64 1649 973.149 1703.53C1057.4 1836.67 1126.93 1993.17 1162.12 2101.96C1181.54 2149.2 1200.28 2221.29 1192.66 2282.12C1188.82 2312.69 1178.24 2341.02 1157.09 2361.72C1135.83 2382.52 1104.7 2394.84 1061.4 2394.84H204.825C180.244 2397.21 145.061 2391.88 120.405 2363.57C95.5949 2335.09 83.0273 2285.14 100.015 2201.78L100.103 2201.35L100.145 2201.15C121.105 2098.3 143.035 1990.69 172.884 1896.56C202.698 1802.54 240.724 1720.88 294.498 1670.79C379.89 1591.26 481.917 1571.21 519.525 1571.21H523.821L525.566 1575.13C534.179 1594.47 561.385 1634.09 628.034 1634.09C661.614 1634.09 682.406 1624.08 695.318 1612.25C708.355 1600.3 713.961 1585.93 716.088 1576.38L717.212 1571.33L722.391 1571.21C748.982 1570.61 794.347 1576.54 841.628 1596.08Z" clip-rule="evenodd" class="color032068 svgShape"></path><path fill="#034668" d="M1092.9 2383.69C1092.9 2269.11 1144.24 2169.44 1166.41 2135.67C1176.91 2160.12 1195.81 2224.4 1187.41 2285.88C1179.01 2347.36 1134.91 2376.7 1092.9 2383.69Z" class="color032068 svgShape"></path><path fill="#ffffff" d="M868.885 2324.3L854.884 2240.46L777.878 2271.9L868.885 2324.3Z" class="colorfff svgShape"></path><path fill="#034668" fill-rule="evenodd" d="M860.044 2231.23L877.707 2336.99L762.896 2270.89L860.044 2231.23ZM792.861 2272.91L860.064 2311.6L849.725 2249.7L792.861 2272.91Z" clip-rule="evenodd" class="color032068 svgShape"></path><path fill="#034668" d="M439.018 2119.26L491.522 1906.17 481.022 2119.26 738.809 2182.01C757.529 2186.56 774.553 2198.1 780.56 2216.37 800.315 2276.46 777.785 2346.61 750.543 2370.77 771.544 2340.78 771.544 2227.55 747.042 2210.08 727.441 2196.11 484.522 2150.7 365.513 2129.74L439.018 2119.26zM582.531 1452.05C568.53 1533.1 548.695 1541.71 540.528 1535.89 442.52 1473.01 444.885 1272.12 505.525 1204.03 561.529 1141.15 603.533 1165.61 719.042 1137.66 834.551 1109.71 873.054 1158.62 852.052 1221.5 821.82 1312.01 726.042 1263.42 701.54 1273.9 677.038 1284.38 645.536 1312.32 631.535 1368.21 617.534 1424.11 610.533 1413.63 600.032 1382.19 589.531 1350.75 561.529 1305.34 540.528 1361.23 523.726 1405.94 561.529 1440.41 582.531 1452.05z" class="color032068 svgShape"></path><path fill="#ffffff" d="M995.562 2388.25C995.562 2293.23 854.384 2264.82 785.546 2262.49C785.546 2310 756.377 2366.12 740.042 2388.25H995.562Z" class="colorfff svgShape"></path><path fill="#034668" fill-rule="evenodd" d="M778.935 2255.66L785.769 2255.9C820.73 2257.08 874.127 2264.86 919.03 2284.57 963.739 2304.2 1002.17 2336.74 1002.17 2388.25V2394.84H726.96L734.72 2384.33C742.523 2373.76 753.645 2354.69 762.803 2332.38 771.976 2310.04 778.935 2285.04 778.935 2262.49V2255.66zM791.969 2269.38C790.745 2292.32 783.662 2316.38 775.036 2337.39 767.971 2354.59 759.737 2370.08 752.472 2381.65H988.7C985.617 2341.76 954.581 2314.59 913.707 2296.65 873.529 2279.01 825.705 2271.23 791.969 2269.38zM98.9695 2263.11C97.5631 2330.14 121.375 2388.24 193.332 2388.24H257.005C240.205 2276.47 151.348 2208.93 109.339 2189.13 108.417 2193.65 107.498 2198.16 106.58 2202.67L106.492 2203.1C101.933 2225.47 99.5556 2245.39 98.9695 2263.11z" clip-rule="evenodd" class="color032068 svgShape"></path><path fill="#034668" d="M630.866 1521.91C664.468 1533.09 692.704 1526.57 704.372 1521.91L711.372 1563.83C666.569 1558.24 640.2 1534.72 630.866 1521.91zM1082.4 2142.65L854.884 2222.99C915.26 2180.62 948.91 2166.43 1008.9 2142.65L973.893 1891.14 1036.9 2128.68 1082.4 2142.65z" class="color032068 svgShape"></path><path fill="#ffffff" d="M2460.81 1529.94L2474.61 1602.38L2460.81 1678.26C2425.17 1682.86 2352.51 1692.06 2346.99 1692.06C2341.47 1692.06 2301 1657.56 2281.45 1640.32L2302.15 1529.94C2244.2 1510.62 2225.11 1425.31 2222.81 1385.07C2209.02 1219.5 2319.39 1198.81 2340.09 1198.81C2360.78 1198.81 2491.86 1198.81 2509.1 1336.78C2522.9 1447.16 2482.66 1511.54 2460.81 1529.94Z" class="colorfff svgShape"></path><path fill="#034668" fill-rule="evenodd" d="M2422.92 1222.52C2458.47 1238.86 2493.77 1271.4 2502.05 1337.66C2515.6 1446.12 2475.9 1507.94 2456.23 1524.5L2453.05 1527.18L2467.38 1602.41L2454.75 1671.87C2437.13 1674.14 2412.88 1677.22 2391.73 1679.83C2380.08 1681.26 2369.39 1682.55 2361.28 1683.48C2357.22 1683.95 2353.82 1684.32 2351.29 1684.58C2350.02 1684.71 2348.99 1684.8 2348.21 1684.87C2348.08 1684.88 2347.97 1684.88 2347.86 1684.89C2347.63 1684.77 2347.34 1684.61 2346.97 1684.4C2345.58 1683.59 2343.68 1682.32 2341.32 1680.62C2336.61 1677.24 2330.55 1672.5 2323.97 1667.14C2312.11 1657.5 2298.82 1646.09 2289.19 1637.65L2310.28 1525.16L2304.39 1523.19C2278.26 1514.48 2260.13 1490.58 2248.15 1462.56C2236.23 1434.69 2231.02 1404.14 2229.91 1384.66L2229.91 1384.57L2229.9 1384.48C2223.15 1303.44 2246.79 1259.21 2273.3 1235.11C2300.2 1210.66 2331.14 1205.92 2340.09 1205.92C2350.29 1205.92 2386.9 1205.95 2422.92 1222.52ZM2348.47 1685.17C2348.47 1685.17 2348.44 1685.16 2348.37 1685.14C2348.44 1685.16 2348.47 1685.18 2348.47 1685.17ZM2340.15 1191.7H2340.09C2328.34 1191.7 2293.75 1197.3 2263.73 1224.59C2233.34 1252.22 2208.7 1301.1 2215.72 1385.57C2216.92 1406.34 2222.4 1438.51 2235.07 1468.15C2246.91 1495.82 2265.56 1522.52 2294.06 1534.49L2273.72 1642.98L2276.75 1645.65C2286.56 1654.31 2301.64 1667.31 2314.99 1678.17C2321.65 1683.59 2327.97 1688.55 2333.02 1692.17C2335.53 1693.98 2337.85 1695.54 2339.8 1696.68C2340.77 1697.25 2341.79 1697.79 2342.77 1698.21C2343.56 1698.54 2345.14 1699.17 2346.99 1699.17C2348.89 1699.17 2355.05 1698.51 2362.9 1697.61C2371.07 1696.68 2381.81 1695.38 2393.47 1693.94C2416.8 1691.06 2443.89 1687.61 2461.72 1685.31L2466.88 1684.65L2481.84 1602.35L2468.55 1532.54C2492.79 1509.37 2529.6 1443.42 2516.16 1335.9C2507.2 1264.19 2468.33 1227.74 2428.86 1209.59C2389.93 1191.7 2350.74 1191.7 2340.15 1191.7Z" clip-rule="evenodd" class="color032068 svgShape"></path><path fill="#ffffff" d="M2378.03 1647.22C2447.02 1647.22 2475.76 1605.83 2484.96 1585.13L2509.11 1592.03L2357.34 2378.47H2333.19H1964.12L2195.22 1633.42L2274.56 1585.13H2284.9C2289.5 1605.83 2309.05 1647.22 2378.03 1647.22Z" class="colorfff svgShape"></path><path fill="#034668" fill-rule="evenodd" d="M2480.97 1576.59L2478.46 1582.24C2470.04 1601.19 2443.41 1640.11 2378.03 1640.11C2345.07 1640.11 2324.73 1630.27 2312.13 1618.7C2299.4 1607 2293.92 1592.94 2291.85 1583.59L2290.61 1578.02H2272.56L2189.23 1628.74L1954.47 2385.58H2363.21L2517.32 1586.98L2480.97 1576.59ZM2279.42 1592.24C2282.71 1603.14 2289.44 1617.16 2302.51 1629.17C2318.08 1643.47 2342.01 1654.33 2378.03 1654.33C2444.99 1654.33 2476.44 1617.01 2488.75 1593.61L2500.89 1597.08L2351.47 2371.36H1973.77L2201.22 1638.1L2276.55 1592.24H2279.42Z" clip-rule="evenodd" class="color032068 svgShape"></path><path fill="#ffffff" d="M2371.14 1995.6C2390.45 1871.42 2457.37 1667.91 2488.41 1581.68C2547.05 1592.03 2677.43 1632.04 2729.86 1709.3C2782.29 1786.57 2852.89 2042.74 2881.63 2161.16C2912.67 2268.09 2912.67 2385.37 2795.4 2385.37H2264.21C2209.02 2278.44 2226.27 2226.7 2243.51 2206C2257.31 2189.45 2318.52 2176.11 2347.4 2171.51C2354.91 2109.72 2363.16 2046.88 2371.14 1995.6Z" class="colorfff svgShape"></path><path fill="#034668" fill-rule="evenodd" d="M2483.75 1573.64L2489.65 1574.68C2519.49 1579.94 2567.31 1592.69 2614.39 1613.92C2661.31 1635.07 2708.43 1665.06 2735.75 1705.31C2749.32 1725.32 2763.8 1756.43 2778.27 1793.25C2792.79 1830.19 2807.49 1873.33 2821.41 1917.67C2849.24 2006.27 2874.1 2099.99 2888.5 2159.33C2904.1 2213.11 2912.27 2270.59 2901.03 2315.1C2895.36 2337.55 2884.65 2357.08 2867.13 2370.95C2849.58 2384.83 2825.92 2392.48 2795.4 2392.48H2259.88L2257.89 2388.63C2202.1 2280.53 2218.16 2225.32 2238.05 2201.45C2242.6 2195.99 2250.29 2191.52 2258.59 2187.79C2267.14 2183.95 2277.34 2180.48 2287.82 2177.44C2306.42 2172.05 2326.47 2167.87 2340.99 2165.37C2348.32 2105.26 2356.34 2044.43 2364.11 1994.5C2383.54 1869.58 2450.68 1665.5 2481.72 1579.27L2483.75 1573.64ZM2493.06 1589.78C2461.23 1678.97 2396.95 1875.9 2378.16 1996.69C2370.2 2047.85 2361.96 2110.61 2354.46 2172.37L2353.81 2177.69L2348.52 2178.53C2334.29 2180.8 2312.07 2185.22 2291.78 2191.1C2281.63 2194.04 2272.13 2197.3 2264.42 2200.76C2256.46 2204.33 2251.33 2207.73 2248.97 2210.55C2234.55 2227.86 2216.39 2275.17 2268.56 2378.25H2795.4C2823.52 2378.25 2843.83 2371.24 2858.3 2359.79C2872.79 2348.33 2882.13 2331.86 2887.24 2311.62C2897.55 2270.81 2890.22 2216.25 2874.8 2163.14L2874.76 2162.99L2874.72 2162.84C2860.38 2103.74 2835.58 2010.25 2807.84 1921.93C2793.97 1877.76 2779.39 1834.97 2765.03 1798.45C2750.63 1761.8 2736.62 1731.92 2723.98 1713.3C2698.86 1676.28 2654.58 1647.64 2608.54 1626.88C2565.66 1607.55 2522.09 1595.43 2493.06 1589.78Z" clip-rule="evenodd" class="color032068 svgShape"></path><path fill="#034668" d="M2564.29 2119.77L2512.55 1909.36 2526.35 2116.32 2271.06 2180.91C2251.19 2185.94 2232.98 2198.3 2227.36 2218.01 2210.57 2276.81 2236.7 2344.57 2257.31 2368.12 2236.18 2343.97 2236.61 2226.7 2260.75 2209.45 2280.07 2195.65 2519.45 2150.81 2636.73 2130.12L2564.29 2119.77zM2436.67 1423.01L2474.62 1585.13C2549.12 1585.13 2630.98 1626.52 2660.88 1647.22 2678.12 1540.29 2612.59 1495.45 2574.65 1412.67 2536.7 1329.88 2567.75 1136.72 2374.59 1136.72 2220.06 1136.72 2197.52 1274.69 2205.57 1343.68 2274.56 1324.36 2314.8 1252.85 2326.3 1219.5 2333.2 1236.75 2391.83 1391.97 2412.53 1354.03 2433.22 1316.09 2464.27 1305.74 2481.51 1354.03 2495.31 1392.66 2457.37 1416.11 2436.67 1423.01zM2157.28 1616.17C2204.19 1569.26 2222.82 1460.96 2226.27 1412.67 2237.3 1492.69 2281.46 1524.19 2302.15 1529.94L2291.8 1585.13C2231.1 1582.37 2176.83 1604.68 2157.28 1616.17zM2747.11 2385.37C2763.66 2274.99 2847.14 2204.85 2888.53 2185.31 2910.89 2275.5 2905.78 2385.37 2809.2 2385.37H2747.11z" class="color032068 svgShape"></path><path fill="#034668" d="M2374.42 1532.02C2341.31 1543.06 2310.14 1533.06 2298.64 1528.46L2291.53 1574.68C2335.68 1569.16 2365.22 1544.66 2374.42 1532.02Z" class="color032068 svgShape"></path><path fill="#ffffff" d="M1659 1786.11C1664.05 1806.71 1687.42 1821.19 1691.63 1828.7L1614.87 1895.57C1602.26 1870.88 1584.43 1817.86 1521.38 1810.13C1433.12 1800.47 1425.44 1734.35 1469.57 1724.69C1504.87 1716.97 1566.53 1729.4 1599.1 1735.84L1561.88 1719.66C1556.73 1717.42 1554.99 1710.97 1558.32 1706.44C1560.15 1703.94 1563.17 1702.58 1566.27 1702.77C1578.95 1703.53 1602.22 1704.65 1621.18 1718.5C1639.81 1732.12 1652.7 1760.35 1659 1786.11Z" class="colorfff svgShape"></path><path fill="#034668" fill-rule="evenodd" d="M1564.05 1710.65C1564.4 1710.17 1565.06 1709.82 1565.85 1709.87L1566.22 1709.89C1579.18 1710.66 1600.1 1711.91 1616.98 1724.24C1633.54 1736.35 1645.91 1762.52 1652.1 1787.8C1655.1 1800.05 1663.36 1809.97 1670.55 1817.29C1673.16 1819.95 1675.82 1822.45 1678.11 1824.61C1678.99 1825.43 1679.81 1826.2 1680.55 1826.92C1680.94 1827.29 1681.3 1827.64 1681.64 1827.97L1617.22 1884.09C1617.16 1883.95 1617.09 1883.81 1617.03 1883.68C1604.5 1857.09 1582.53 1810.46 1522.25 1803.07L1522.16 1803.06C1479.48 1798.39 1458.55 1780.37 1452.44 1764.81C1449.39 1757.04 1449.89 1749.76 1452.91 1744.1C1455.91 1738.47 1461.81 1733.67 1471.09 1731.64C1487.48 1728.05 1510.69 1729.08 1534.49 1732.01C1557.37 1734.83 1579.96 1739.3 1596.2 1742.51C1596.71 1742.61 1597.22 1742.71 1597.72 1742.81L1601.94 1729.32L1564.72 1713.13C1563.75 1712.71 1563.42 1711.5 1564.05 1710.65ZM1566.69 1695.67C1561.28 1695.35 1555.91 1697.71 1552.59 1702.23C1548.55 1707.73 1548.63 1714.79 1551.93 1720.07C1546.77 1719.28 1541.51 1718.55 1536.23 1717.9C1512.24 1714.94 1486.96 1713.61 1468.05 1717.75C1455.26 1720.55 1445.57 1727.63 1440.36 1737.41C1435.16 1747.17 1434.82 1758.84 1439.21 1770.01C1447.97 1792.34 1475 1812.2 1520.56 1817.19C1572.53 1823.58 1591.13 1862.55 1603.94 1889.37C1605.54 1892.73 1607.06 1895.91 1608.54 1898.8L1612.68 1906.91L1700.65 1830.27L1697.83 1825.23C1696.16 1822.25 1693.06 1819.2 1690.38 1816.64C1689.48 1815.78 1688.57 1814.92 1687.64 1814.05C1685.42 1811.96 1683.1 1809.78 1680.71 1807.33C1673.9 1800.4 1667.96 1792.77 1665.91 1784.42C1659.49 1758.19 1646.08 1727.9 1625.37 1712.76C1605.08 1697.93 1580.54 1696.48 1567.76 1695.73C1567.4 1695.71 1567.04 1695.69 1566.69 1695.67Z" clip-rule="evenodd" class="color032068 svgShape"></path><path fill="#ffffff" fill-rule="evenodd" d="M2278.01 1581.68C2243.52 1662.16 2169.01 1857.62 2146.94 1995.6C2124.86 2133.57 2107.85 2310.63 2102.1 2385.37H1933.08L1938.6 2371.56C1895.71 2371.22 1849.87 2359.21 1822.7 2340.52C1767.51 2302.58 1578.16 1954.2 1578.16 1912.81C1578.16 1871.42 1657.49 1802.44 1691.98 1802.44C1708.41 1802.44 1752.23 1845.47 1796.22 1888.68C1844.6 1936.2 1893.2 1983.93 1905.84 1974.9C1915.23 1968.19 1921.49 1948.98 1930.7 1920.69C1945.18 1876.22 1966.96 1809.35 2019.67 1733.45C2041.53 1701.97 2067.4 1676.01 2094.11 1655.19C2149.89 1601.78 2239.15 1583.9 2278.01 1581.68Z" clip-rule="evenodd" class="colorfff svgShape"></path><path fill="#034668" fill-rule="evenodd" d="M2289.07 1573.93L2284.55 1584.48C2250.09 1664.88 2175.89 1859.66 2153.96 1996.72C2131.93 2134.42 2114.93 2311.27 2109.19 2385.91L2108.68 2392.48H1922.58L1928.22 2378.38C1887.43 2376.37 1845.11 2364.56 1818.67 2346.38C1810.81 2340.98 1801.25 2330.63 1790.77 2317.36C1780.13 2303.9 1768.09 2286.84 1755.27 2267.43C1729.63 2228.59 1700.7 2180.03 1673.53 2131.43C1646.35 2082.83 1620.88 2034.07 1602.19 1994.83C1592.84 1975.21 1585.15 1957.89 1579.78 1944.1C1577.09 1937.21 1574.95 1931.11 1573.47 1926C1572.03 1921.05 1571.05 1916.46 1571.05 1912.81C1571.05 1900.43 1576.87 1886.95 1585.13 1874.23C1593.5 1861.34 1604.91 1848.4 1617.3 1836.89C1629.69 1825.38 1643.27 1815.13 1656.08 1807.71C1668.64 1800.44 1681.42 1795.32 1691.98 1795.32C1695.46 1795.32 1698.98 1796.42 1702.25 1797.86C1705.6 1799.34 1709.2 1801.42 1712.94 1803.91C1720.44 1808.87 1729.1 1815.84 1738.44 1824C1757.11 1840.3 1779.18 1861.97 1801.09 1883.49L1801.21 1883.61C1825.46 1907.44 1849.5 1931.04 1869.03 1947.57C1878.83 1955.87 1887.17 1962.11 1893.64 1965.71C1896.9 1967.52 1899.29 1968.44 1900.9 1968.77C1901.46 1968.88 1901.81 1968.9 1902 1968.9C1904.87 1966.69 1908.06 1961.9 1911.79 1953.11C1915.53 1944.28 1919.3 1932.74 1923.94 1918.49L1923.96 1918.42C1938.48 1873.83 1960.52 1806.15 2013.83 1729.39C2036.06 1697.37 2062.34 1670.97 2089.45 1649.8C2118.33 1622.26 2155.53 1604.08 2190.15 1592.49C2224.89 1580.87 2257.55 1575.73 2277.61 1574.58L2289.07 1573.93ZM1943.58 2378.25H2095.52C2101.73 2300.03 2118.42 2128.82 2139.92 1994.47C2161.19 1861.49 2230.68 1676.03 2266.86 1589.77C2248.01 1591.87 2222.05 1596.82 2194.66 1605.98C2161.09 1617.21 2125.89 1634.6 2099.03 1660.33L2098.76 1660.58L2098.48 1660.8C2072.27 1681.23 2046.92 1706.68 2025.51 1737.51C1973.42 1812.51 1951.9 1878.55 1937.46 1922.89L1937.37 1923.17C1932.84 1937.09 1928.89 1949.2 1924.88 1958.66C1920.95 1967.93 1916.41 1976.09 1909.97 1980.69C1906.15 1983.42 1901.71 1983.44 1898.07 1982.71C1894.41 1981.97 1890.56 1980.27 1886.72 1978.13C1879.01 1973.84 1869.81 1966.87 1859.84 1958.42C1839.86 1941.51 1815.47 1917.56 1791.4 1893.92L1791.24 1893.76C1769.19 1872.1 1747.41 1850.71 1729.09 1834.71C1719.92 1826.71 1711.81 1820.22 1705.09 1815.76C1701.73 1813.54 1698.86 1811.92 1696.5 1810.87C1694.05 1809.79 1692.62 1809.55 1691.98 1809.55C1685.3 1809.55 1675.23 1813.06 1663.21 1820.01C1651.45 1826.82 1638.72 1836.4 1626.97 1847.31C1615.22 1858.23 1604.64 1870.29 1597.06 1881.98C1589.36 1893.84 1585.27 1904.5 1585.27 1912.81C1585.27 1914.34 1585.76 1917.32 1587.13 1922.04C1588.45 1926.6 1590.43 1932.26 1593.03 1938.94C1598.22 1952.27 1605.76 1969.25 1615.03 1988.71C1633.56 2027.61 1658.88 2076.08 1685.94 2124.49C1713 2172.9 1741.75 2221.14 1767.14 2259.59C1779.84 2278.82 1791.64 2295.52 1801.93 2308.54C1812.36 2321.74 1820.79 2330.58 1826.73 2334.66C1852.39 2352.31 1896.71 2364.12 1938.66 2364.45L1949.07 2364.53L1943.58 2378.25Z" clip-rule="evenodd" class="color032068 svgShape"></path><path fill="#034668" d="M2050.35 1923.16C2039.36 2057.23 1995.38 2297.16 1977.05 2385.37H1933.07C1953.6 2340.2 2021.03 2064.29 2050.35 1923.16Z" class="color032068 svgShape"></path><path fill="#034668" d="M1753.71 2250.84C1777.86 2292.23 1805.45 2347.42 1864.09 2361.22C1889.8 2369.79 1916 2372.4 1939.98 2371.71L1977.92 2320.95C1897.06 2274.57 1799.28 2253.69 1753.71 2250.84Z" class="color032068 svgShape"></path><path fill="#ffffff" d="M2015.86 2385.36C2015.86 2291.54 2154.98 2263.49 2222.82 2261.19C2222.82 2308.1 2246.96 2354.32 2267.66 2385.36H2015.86Z" class="colorfff svgShape"></path><path fill="#034668" fill-rule="evenodd" d="M2229.93 2253.83L2222.58 2254.08C2188.08 2255.25 2135.38 2262.95 2091.04 2282.45C2046.91 2301.86 2008.75 2334.15 2008.75 2385.37V2392.48H2280.95L2273.57 2381.42C2253.09 2350.69 2229.93 2305.93 2229.93 2261.19V2253.83ZM2215.9 2268.63C2217.96 2309.61 2236.64 2349.08 2254.65 2378.25H2023.27C2026.57 2339.54 2056.78 2313.06 2096.76 2295.47C2136.02 2278.2 2182.74 2270.52 2215.9 2268.63Z" clip-rule="evenodd" class="color032068 svgShape"></path></svg></g></svg>